<svg width="131" height="147" viewBox="0 0 131 147" fill="none" xmlns="http://www.w3.org/2000/svg">
<path d="M5.86719 2.89404C5.86511 2.8962 5.86321 2.90057 5.85937 2.90576C5.74124 3.06583 5.64259 3.24671 5.56641 3.45264C5.47754 3.69336 5.30612 3.89362 5.05469 3.99951C4.82261 4.09704 4.56857 4.09288 4.33984 4.0542C4.20755 4.03205 4.13089 4.04092 4.09375 4.05029C4.0768 4.05462 4.06761 4.05734 4.06641 4.05811V4.06201C3.90699 4.26605 3.73359 4.46049 3.55078 4.64404C3.39901 4.7964 3.2581 4.9596 3.12891 5.13232C3.05479 5.23149 3.00752 5.35789 3.00391 5.53076C2.99972 5.7404 3.03167 5.96292 3.10156 6.19873C3.20401 6.54444 3.22716 6.90139 3.10547 7.23389C3.0215 7.46328 2.91636 7.68778 2.78906 7.90576C2.73879 7.99191 2.72089 8.07767 2.74219 8.18701C2.81522 8.56303 2.72014 8.91757 2.5 9.22217C2.36104 9.41446 2.21861 9.61375 2.07812 9.82373C2.08981 9.83845 2.10684 9.85843 2.13281 9.88232C2.30982 10.0444 2.48429 10.2831 2.48437 10.5933C2.4843 10.8961 2.31775 11.1276 2.14453 11.2886C2.2936 11.4426 2.42485 11.6331 2.46484 11.8706C2.50952 12.136 2.43309 12.3796 2.29687 12.5776C2.15529 12.7835 2.03067 12.988 1.92187 13.1909C1.93309 13.2086 1.95335 13.2417 2 13.2847C2.18372 13.4538 2.36538 13.7168 2.32031 14.0581C2.28808 14.3022 2.13878 14.4752 1.98828 14.6128C2.19462 14.7401 2.40084 14.9038 2.51562 15.1284C2.58127 15.2575 2.61898 15.406 2.60547 15.5659C2.59178 15.7245 2.53066 15.8631 2.45312 15.9761C2.29664 16.2037 2.13731 16.4321 1.97656 16.6597C1.95962 16.6837 1.95541 16.7 1.95312 16.7065C1.95113 16.7123 1.94924 16.7102 1.94922 16.7065C1.94908 16.7047 1.95132 16.7053 1.95312 16.7104C1.95588 16.7181 1.96238 16.7358 1.98047 16.7612C2.21174 17.0859 2.31495 17.467 2.20312 17.8667C2.19765 17.8862 2.18961 17.9138 2.19922 17.9526L2.45703 18.4097C2.49861 18.5213 2.52055 18.6428 2.51562 18.7729C2.50586 19.0294 2.393 19.2462 2.24609 19.4175L2.23828 19.4253C2.24184 19.4298 2.24518 19.4354 2.25 19.4409C2.41518 19.6273 2.54386 19.8857 2.49609 20.1909C2.45133 20.4755 2.27128 20.6896 2.08984 20.8394H2.08594C2.2383 21.0182 2.35786 21.2592 2.3125 21.5503C2.27228 21.8071 2.11166 21.9931 1.94922 22.1362C2.26464 22.3876 2.52619 22.6916 2.60937 23.0659C2.71946 23.5617 2.43906 23.9616 2.10547 24.2378C1.8742 24.4294 1.78062 24.5806 1.75 24.6792C1.68865 24.8769 1.64794 25.0745 1.625 25.269C1.60502 25.4397 1.61177 25.611 1.64844 25.7847C1.6966 26.0119 1.74526 26.241 1.79297 26.4683C1.82237 26.6077 1.8946 26.7677 2.03125 26.9487C2.25064 27.2388 2.39238 27.568 2.39844 27.9253C2.40134 28.0937 2.43242 28.2662 2.49609 28.4448C2.58987 28.7074 2.55593 28.9743 2.42578 29.2026C2.30694 29.4111 2.11543 29.5768 1.91406 29.7104C1.852 29.7518 1.80849 29.785 1.78125 29.812C1.88675 30.0244 1.98833 30.236 2.08203 30.4487C2.23795 30.8028 2.237 31.1758 2.08203 31.5308C2.06937 31.5597 2.07262 31.5755 2.07422 31.5854C2.07673 31.6 2.08616 31.6415 2.13672 31.7065C2.35981 31.9935 2.50693 32.3168 2.52344 32.6714C2.53475 32.9148 2.5328 33.1586 2.51953 33.4019C2.50452 33.6761 2.44996 33.9475 2.35937 34.2144C2.30909 34.3629 2.29885 34.5041 2.32422 34.644C2.39601 35.0397 2.27065 35.4046 2.03516 35.7144L2.03125 35.7183C2.03753 35.7276 2.04468 35.7417 2.05859 35.7573C2.30897 36.0359 2.48797 36.356 2.53125 36.7144C2.58313 37.1443 2.37507 37.5036 2.08984 37.7847C2.38209 38.0652 2.59919 38.4298 2.55859 38.8628C2.53689 39.0941 2.5136 39.3269 2.48437 39.5581C2.46164 39.7389 2.46177 39.9194 2.48828 40.1011C2.55559 40.5612 2.31555 40.9409 2.00391 41.2222C1.94392 41.2763 1.91636 41.3136 1.90625 41.3315C2.05748 41.6688 2.07992 42.0276 1.95703 42.3784C1.94653 42.4085 1.93146 42.459 2.02734 42.5815C2.26944 42.8899 2.40344 43.2587 2.33203 43.6597C2.2725 43.9913 2.10825 44.294 1.87891 44.5659C1.88325 44.5709 1.88889 44.5757 1.89453 44.5815C2.06494 44.7564 2.21416 45.0069 2.1875 45.3159C2.16172 45.6125 1.98396 45.8371 1.80469 45.9917C1.71202 46.0719 1.67566 46.1265 1.66406 46.1519L1.66016 46.1636C1.68752 46.2676 1.77059 46.4163 1.97266 46.605C2.14044 46.7613 2.29686 46.9713 2.33984 47.2339C2.3847 47.5109 2.29095 47.7581 2.14453 47.9526C2.03725 48.0948 2.03241 48.1855 2.04297 48.2456C2.10702 48.6111 2.01495 48.9585 1.82031 49.269C1.8299 49.2833 1.8455 49.3064 1.875 49.3354C2.03265 49.4903 2.17117 49.6829 2.22656 49.9175C2.2848 50.1654 2.24092 50.4078 2.125 50.6167C1.98626 50.8667 1.81058 51.108 1.60937 51.3472C1.61488 51.3529 1.62169 51.3599 1.62891 51.3667C1.90603 51.6282 2.12434 51.9161 2.24609 52.2339C2.37885 52.5806 2.37133 52.9414 2.23047 53.2847C2.16719 53.4397 2.14684 53.5835 2.16016 53.7222C2.18186 53.9438 2.20576 54.1684 2.23437 54.3901C2.27447 54.7022 2.23714 55.0104 2.125 55.3081C2.01656 55.5955 1.84768 55.8691 1.63281 56.1284C1.53236 56.2496 1.55007 56.2964 1.55859 56.3198C1.61896 56.489 1.72152 56.6729 1.87109 56.8667C2.02587 57.0678 2.12148 57.3321 2.05469 57.6245C1.99324 57.8921 1.81458 58.0951 1.63281 58.2417C1.61404 58.2569 1.59796 58.2691 1.58594 58.2808C1.72671 58.4706 1.89197 58.6661 2.08594 58.8628C2.36892 59.1499 2.57234 59.5109 2.53906 59.9331C2.51081 60.286 2.35541 60.608 2.125 60.8901C2.11881 60.8977 2.11319 60.9041 2.10937 60.9097C2.11383 60.9164 2.11679 60.927 2.125 60.937C2.2746 61.1198 2.38384 61.3568 2.36328 61.6323C2.34285 61.9 2.20681 62.1166 2.04687 62.2808C1.86597 62.4661 1.73869 62.6405 1.65625 62.8003C1.65857 62.8036 1.66091 62.808 1.66406 62.812C1.6822 62.8351 1.71128 62.8669 1.75781 62.9058C1.93998 63.0574 2.12758 63.2794 2.16016 63.5776C2.19425 63.8946 2.0381 64.1487 1.86328 64.3237C1.78849 64.3986 1.76299 64.4514 1.75391 64.4761C1.74792 64.493 1.74664 64.5034 1.75 64.5151C1.80803 64.7182 1.88537 64.9219 1.97656 65.1284C2.15657 65.5359 2.08533 65.95 1.83984 66.3003C1.82761 66.318 1.81903 66.329 1.81641 66.3354C1.81564 66.3255 1.81486 66.341 1.85156 66.3901C1.97923 66.5606 2.07133 66.7635 2.08984 66.9917C2.10857 67.2234 2.0448 67.4407 1.93359 67.6284C1.88665 67.7084 1.88994 67.7511 1.92578 67.8198C2.04937 68.0565 2.16513 68.2932 2.26953 68.5308C2.3793 68.7806 2.37191 69.0496 2.25391 69.2925C2.14716 69.5119 1.96311 69.6834 1.76953 69.8198C1.74506 69.837 1.72313 69.8531 1.70703 69.8667C1.86724 70.0901 2.00755 70.3175 2.125 70.5464C2.2465 70.7842 2.26248 71.0495 2.15625 71.3042C2.07644 71.495 1.93329 71.6423 1.78125 71.769C1.96623 71.9063 2.16762 72.1052 2.21484 72.394C2.27084 72.7406 2.0828 73.0013 1.89844 73.1675C2.06191 73.3365 2.20752 73.5765 2.17969 73.8784C2.15079 74.1873 1.95191 74.4126 1.76562 74.562C1.5306 74.7508 1.4902 74.8743 1.48437 74.9175C1.45771 75.1153 1.44564 75.3138 1.45312 75.5112C1.45676 75.5992 1.49416 75.7261 1.63281 75.894C1.83178 76.135 2.01337 76.3759 2.17187 76.6206C2.38519 76.95 2.46559 77.3269 2.35156 77.7144C2.24698 78.069 2.00234 78.3724 1.69531 78.6323C1.65135 78.6696 1.62553 78.7009 1.60937 78.7222L1.60156 78.73C1.74263 79.0187 1.81413 79.3247 1.79687 79.6401C1.78101 79.9259 1.71728 80.2068 1.60547 80.48C1.59557 80.5042 1.59569 80.514 1.59766 80.5229C1.60098 80.5379 1.61464 80.5799 1.67187 80.6479C1.91322 80.9339 2.07904 81.2641 2.09375 81.6323C2.10103 81.8155 2.13113 82.0022 2.1875 82.1909C2.26808 82.4617 2.21211 82.7236 2.07422 82.9409C1.94711 83.1412 1.75436 83.3015 1.54687 83.4331C1.40429 83.5235 1.3372 83.5897 1.3125 83.6245C1.36232 83.8674 1.39639 84.1104 1.40234 84.355V84.3706C1.4061 84.3808 1.41578 84.3997 1.43359 84.4253C1.47183 84.4798 1.54515 84.5551 1.67187 84.6479C1.8618 84.787 2.04018 84.9587 2.14453 85.1753C2.25862 85.4123 2.27044 85.6763 2.16797 85.9253C2.07039 86.1622 1.95829 86.3966 1.83984 86.6323C1.84558 86.6453 1.86498 86.6815 1.92187 86.7378C2.09328 86.9075 2.24789 87.1505 2.23437 87.4565C2.22073 87.7563 2.05151 87.9852 1.875 88.144C1.67085 88.3277 1.57157 88.4789 1.53125 88.5933C1.54019 88.6132 1.57465 88.6673 1.67187 88.7495C1.86096 88.9098 2.06922 89.1746 2.02734 89.5308C1.98845 89.8609 1.74888 90.0842 1.55078 90.2222C1.41858 90.3144 1.34137 90.3898 1.30078 90.4448C1.27098 90.4852 1.26627 90.5071 1.26562 90.5112C1.2662 90.4985 1.26105 90.5077 1.28906 90.5503C1.32133 90.5989 1.38928 90.6727 1.51562 90.7651C1.70748 90.9054 1.89471 91.0911 1.98828 91.3315C2.09304 91.6017 2.05364 91.8761 1.91406 92.1089C1.78297 92.3274 1.65833 92.5472 1.54297 92.7651C1.53489 92.7807 1.53247 92.7912 1.53125 92.7964C1.53043 92.8005 1.53094 92.8056 1.53125 92.8081C1.53248 92.8154 1.53906 92.8462 1.58203 92.9019C1.79602 93.177 1.95109 93.4781 2.01172 93.8003C2.07342 94.129 2.03227 94.455 1.90234 94.7651C1.78342 95.0489 1.6085 95.3205 1.38672 95.5776C1.32626 95.6477 1.30626 95.6931 1.30078 95.7143C1.29693 95.7296 1.29714 95.7426 1.30469 95.7651C1.36372 95.9376 1.46044 96.122 1.60156 96.3159C1.74236 96.5096 1.8285 96.7524 1.78906 97.0229C1.75794 97.2359 1.64574 97.4055 1.51953 97.5503L1.52734 97.5581C1.72649 97.6957 1.96481 97.9169 2.01172 98.2417C2.05933 98.5735 1.88399 98.8228 1.70703 98.9878C2.00365 99.2507 2.2422 99.5772 2.27344 99.9761C2.2976 100.288 2.24362 100.593 2.12109 100.886C1.98921 101.202 1.75972 101.484 1.47266 101.742C1.272 101.922 1.24127 102.037 1.23828 102.082C1.22386 102.298 1.21644 102.514 1.21484 102.73C1.21459 102.765 1.23245 102.87 1.41797 103.046C1.58062 103.201 1.72375 103.4 1.77734 103.644C1.83416 103.903 1.77607 104.149 1.64844 104.355C1.5762 104.472 1.57553 104.546 1.59766 104.617C1.69277 104.915 1.71713 105.224 1.66797 105.531C1.66539 105.547 1.65789 105.623 1.8125 105.781C2.09319 106.067 2.29273 106.427 2.26953 106.843C2.24695 107.239 2.03733 107.576 1.75391 107.851C1.56974 108.03 1.43835 108.199 1.34766 108.355C1.37059 108.379 1.40588 108.411 1.45703 108.449C1.64893 108.589 1.83923 108.773 1.92969 109.019C2.03187 109.297 1.97829 109.572 1.83203 109.8C1.73505 109.951 1.71478 110.072 1.72266 110.171C1.74325 110.431 1.73716 110.69 1.70703 110.949C1.68079 111.174 1.65344 111.399 1.62891 111.625C1.60599 111.835 1.5961 112.047 1.59375 112.257C1.58973 112.59 1.48181 112.905 1.30078 113.195C1.29484 113.204 1.2872 113.21 1.28516 113.214C1.28398 113.204 1.28481 113.228 1.33594 113.289C1.53021 113.52 1.71671 113.752 1.89844 113.984C2.06538 114.197 2.16283 114.481 2.0625 114.789C1.97555 115.054 1.76858 115.246 1.57031 115.382C1.50937 115.424 1.46713 115.461 1.44141 115.488L1.43359 115.492C1.56705 115.789 1.61763 116.103 1.55469 116.425C1.50934 116.657 1.45983 116.889 1.40625 117.121C1.353 117.351 1.29756 117.582 1.23828 117.812C1.20641 117.936 1.21145 118.06 1.26172 118.195C1.32281 118.359 1.42638 118.537 1.58594 118.73C1.73352 118.908 1.84663 119.139 1.83984 119.406C1.83272 119.67 1.71054 119.891 1.55859 120.062C1.40975 120.23 1.37441 120.351 1.37109 120.429C1.36405 120.601 1.38364 120.778 1.43359 120.957C1.53962 121.337 1.44135 121.694 1.23047 122.003C1.24479 122.017 1.26041 122.039 1.28516 122.058C1.61582 122.318 1.89044 122.639 1.96875 123.035C2.04808 123.438 1.90878 123.805 1.66406 124.109C1.66993 124.115 1.67532 124.124 1.68359 124.132C1.99316 124.435 2.20589 124.852 2.05859 125.324C1.95995 125.639 1.74058 125.904 1.47266 126.14C1.66982 126.273 1.89184 126.471 1.95703 126.765C2.03777 127.131 1.84176 127.414 1.64844 127.585C1.63135 127.601 1.61559 127.614 1.60547 127.625C1.73625 127.813 1.81948 128.044 1.78125 128.304C1.74507 128.549 1.60527 128.74 1.45312 128.894C1.62495 129.057 1.78631 129.291 1.78516 129.593C1.78381 129.902 1.6113 130.139 1.43359 130.3C1.23718 130.479 1.20594 130.594 1.20312 130.64C1.20288 130.646 1.20451 130.667 1.22656 130.707C1.25308 130.753 1.30763 130.822 1.41016 130.91C1.58454 131.058 1.74902 131.25 1.82031 131.492C1.89694 131.753 1.8477 132.009 1.71875 132.226C1.71117 132.239 1.70483 132.249 1.70312 132.253C1.70305 132.253 1.70893 132.281 1.75391 132.335C1.89933 132.513 2.00553 132.74 2 133.003C1.99443 133.266 1.88005 133.487 1.73047 133.66C1.58212 133.83 1.53547 133.961 1.52734 134.054C1.52107 134.126 1.53845 134.232 1.65625 134.386C1.78519 134.555 1.87973 134.757 1.90234 134.984C1.92507 135.214 1.86968 135.431 1.76172 135.621C1.66093 135.798 1.60621 135.963 1.58594 136.117C1.54646 136.415 1.41772 136.689 1.24219 136.949C1.25889 136.965 1.27821 136.988 1.30859 137.011C1.50303 137.158 1.74767 137.414 1.72266 137.785C1.69836 138.138 1.43857 138.369 1.23828 138.503C1.1284 138.578 1.0771 138.634 1.05469 138.664C1.12074 138.875 1.1906 139.085 1.25781 139.296C1.33337 139.534 1.39852 139.773 1.45703 140.011C1.52313 140.28 1.55441 140.551 1.54687 140.824C1.53685 141.184 1.37864 141.503 1.14844 141.785C1.15489 141.792 1.16225 141.803 1.17187 141.812C1.45649 142.09 1.66776 142.431 1.68359 142.832C1.69614 143.149 1.62656 143.458 1.48437 143.75C1.45942 143.801 1.44939 143.839 1.51172 143.933C1.75061 144.294 1.79945 144.712 1.60156 145.113C1.58615 145.144 1.57505 145.167 1.57031 145.183C1.59823 145.223 1.62866 145.266 1.65234 145.312C1.67944 145.365 1.72201 145.466 1.72656 145.589C1.73177 145.741 1.67378 145.93 1.5 146.054C1.36184 146.153 1.21513 146.16 1.14844 146.16H1L0.875 146.078L0.722656 145.976L0.933594 145.656H0.734375C0.738088 145.689 0.741247 145.715 0.746094 145.73C0.752223 145.749 0.759355 145.76 0.761719 145.765C0.76529 145.772 0.762118 145.767 0.746094 145.746C0.726181 145.719 0.719373 145.683 0.703125 145.656H0.5V145.554L0.503906 144.632L0.675781 144.742C0.685833 144.718 0.692092 144.694 0.703125 144.671C0.723042 144.631 0.723753 144.606 0.722656 144.593C0.721215 144.578 0.713153 144.544 0.675781 144.488C0.43785 144.128 0.387353 143.712 0.582031 143.312C0.660047 143.152 0.688948 143.006 0.683594 142.871C0.681394 142.818 0.654051 142.704 0.472656 142.527C0.307607 142.366 0.159946 142.15 0.132813 141.878C0.104996 141.595 0.216717 141.352 0.371094 141.167C0.509399 141.002 0.544529 140.881 0.546875 140.796C0.551884 140.616 0.533635 140.434 0.488281 140.25C0.435243 140.034 0.373541 139.818 0.304688 139.601C0.232266 139.373 0.160926 139.145 0.0898438 138.917C0.00816385 138.656 0.0511584 138.396 0.179688 138.175C0.285777 137.993 0.446846 137.847 0.621094 137.722C0.466644 137.589 0.315874 137.429 0.25 137.214C0.16138 136.924 0.239284 136.652 0.394531 136.437L0.535156 136.195C0.567416 136.12 0.585298 136.048 0.59375 135.984C0.633218 135.686 0.734842 135.398 0.890625 135.125C0.900731 135.107 0.90479 135.095 0.90625 135.089C0.90721 135.085 0.910238 135.082 0.910156 135.082C0.909864 135.079 0.905297 135.051 0.863281 134.996C0.634348 134.696 0.498405 134.348 0.53125 133.968C0.562793 133.608 0.729249 133.284 0.972656 133.003C0.980745 132.994 0.987553 132.986 0.992188 132.98C0.989337 132.976 0.984315 132.973 0.980469 132.968C0.843752 132.801 0.737449 132.6 0.710938 132.367C0.685546 132.142 0.741288 131.934 0.84375 131.75C0.828765 131.731 0.804097 131.704 0.765625 131.671C0.444848 131.399 0.179132 131.033 0.207031 130.578C0.231344 130.182 0.45181 129.853 0.738281 129.585C0.574321 129.425 0.421061 129.206 0.414063 128.921C0.406705 128.616 0.564827 128.377 0.738281 128.21C0.754939 128.194 0.76471 128.178 0.773438 128.167C0.63464 127.972 0.549349 127.729 0.601563 127.457C0.641635 127.248 0.757186 127.083 0.886719 126.945C0.682968 126.812 0.429249 126.597 0.375 126.269C0.313661 125.892 0.542961 125.617 0.738281 125.46C0.979067 125.267 1.07227 125.117 1.10156 125.023L1.10547 125.015C1.10516 125.014 1.10294 125.008 1.10156 125.003C1.09382 124.982 1.06492 124.93 0.984375 124.851C0.819529 124.69 0.672583 124.473 0.644531 124.203C0.615497 123.921 0.72569 123.677 0.878906 123.492C0.996509 123.349 0.996347 123.272 0.988281 123.23C0.977037 123.173 0.916126 123.039 0.667969 122.843C0.483324 122.698 0.300685 122.5 0.230469 122.238C0.152564 121.946 0.238963 121.677 0.394531 121.468C0.488835 121.341 0.481825 121.274 0.46875 121.226C0.391831 120.951 0.359776 120.671 0.371094 120.39C0.386421 120.015 0.561017 119.681 0.8125 119.398C0.818954 119.391 0.823923 119.384 0.828125 119.378C0.825684 119.375 0.819471 119.374 0.816406 119.371C0.599479 119.109 0.432122 118.832 0.324219 118.542C0.205489 118.223 0.184627 117.891 0.269531 117.562C0.326664 117.341 0.382297 117.119 0.433594 116.898C0.48475 116.677 0.53098 116.455 0.574219 116.234C0.595329 116.126 0.583974 116.009 0.515625 115.871C0.393051 115.622 0.387662 115.346 0.507813 115.093C0.615206 114.868 0.803139 114.694 1 114.558C1.01894 114.545 1.03302 114.53 1.04687 114.519C0.892552 114.324 0.734326 114.128 0.570313 113.933C0.43017 113.766 0.319237 113.561 0.292969 113.324C0.266107 113.08 0.333292 112.855 0.453125 112.664C0.553872 112.502 0.592233 112.365 0.59375 112.246C0.596464 112.003 0.610305 111.758 0.636719 111.515C0.66148 111.288 0.688361 111.059 0.714844 110.832C0.737301 110.638 0.738051 110.443 0.722656 110.25C0.69674 109.92 0.78949 109.611 0.957031 109.328C0.936874 109.308 0.907339 109.283 0.867188 109.253C0.676091 109.114 0.492187 108.934 0.394531 108.703C0.285996 108.445 0.305916 108.173 0.433594 107.933L0.703125 107.523C0.807393 107.389 0.924503 107.259 1.05469 107.132C1.2351 106.957 1.27029 106.841 1.27344 106.785C1.27514 106.747 1.26105 106.651 1.09766 106.484C0.809745 106.19 0.609364 105.809 0.679688 105.371C0.70298 105.225 0.693991 105.077 0.644531 104.921C0.523921 104.542 0.591201 104.171 0.792969 103.839C0.781783 103.823 0.758188 103.803 0.726563 103.773C0.433768 103.494 0.212401 103.143 0.214844 102.726C0.216557 102.49 0.226416 102.252 0.242188 102.015C0.269437 101.607 0.506729 101.27 0.808594 101C1.02411 100.806 1.14207 100.636 1.19922 100.5C1.26497 100.342 1.28812 100.195 1.27734 100.054C1.27441 100.017 1.24359 99.8982 1.02344 99.7104C0.839883 99.5539 0.646178 99.3149 0.644531 98.9917C0.643538 98.7192 0.781404 98.5089 0.933594 98.355C0.742426 98.2174 0.534852 98.0194 0.472656 97.7339C0.398719 97.3914 0.560996 97.1139 0.746094 96.9331C0.764295 96.9154 0.776417 96.8974 0.785156 96.8862C0.600434 96.6297 0.453913 96.3656 0.359375 96.0893C0.209962 95.6521 0.351068 95.2436 0.628906 94.9214C0.795518 94.7279 0.910015 94.5465 0.980469 94.3784C1.03968 94.2369 1.05077 94.1084 1.02734 93.9839C1.00246 93.8525 0.932588 93.6986 0.792969 93.519C0.663706 93.3529 0.567394 93.1557 0.539063 92.9331C0.510304 92.7058 0.558297 92.489 0.660156 92.2964C0.77326 92.0827 0.893073 91.8688 1.01953 91.6558C0.998305 91.6344 0.969235 91.6055 0.925781 91.5737C0.573799 91.3164 0.24758 90.9494 0.269531 90.4644C0.29046 90.0145 0.600602 89.6773 0.945313 89.4292C0.649283 89.1468 0.425978 88.7579 0.578125 88.2925L0.683594 88.0503C0.80487 87.8178 0.980195 87.6058 1.19141 87.4136C1.04864 87.2652 0.925959 87.0878 0.871094 86.8745C0.809567 86.6345 0.842866 86.3985 0.949219 86.187L1.22266 85.5815C1.21818 85.576 1.21352 85.569 1.20703 85.562C1.18088 85.5337 1.13953 85.4987 1.08203 85.4565C0.731474 85.1999 0.414117 84.8456 0.402344 84.3823C0.397699 84.1877 0.374413 83.9895 0.332031 83.7925C0.21086 83.2271 0.634772 82.8284 1.01172 82.5894C1.13772 82.5094 1.19063 82.4447 1.21484 82.4136C1.14652 82.1684 1.10367 81.9208 1.09375 81.6714C1.09012 81.5863 1.05258 81.4612 0.910156 81.2925C0.629402 80.9599 0.499862 80.5405 0.679688 80.1011C0.752495 79.9232 0.791479 79.7517 0.800781 79.5854C0.807839 79.4564 0.778978 79.3144 0.699219 79.1558C0.58648 78.9318 0.561225 78.6778 0.644531 78.4292C0.722098 78.1994 0.878833 78.0162 1.05078 77.8706C1.27573 77.6802 1.36559 77.5311 1.39453 77.4331C1.41366 77.3682 1.41315 77.2888 1.33203 77.1636C1.19649 76.9543 1.03942 76.7442 0.863281 76.5308C0.626578 76.2441 0.466987 75.9118 0.453125 75.5464C0.44354 75.2913 0.457848 75.035 0.492188 74.7808C0.54688 74.3798 0.804763 74.0546 1.12109 73.7964C0.967337 73.6315 0.832844 73.4069 0.847656 73.1245C0.860996 72.872 0.995777 72.6803 1.14062 72.5308C0.944147 72.3933 0.702685 72.1653 0.679688 71.8237C0.654514 71.4493 0.905082 71.1949 1.10156 71.0503C1.15234 71.0129 1.1812 70.9764 1.20312 70.9526C1.10503 70.7683 0.992324 70.5766 0.851563 70.3862C0.691589 70.1695 0.611857 69.8905 0.710938 69.5933C0.798082 69.3331 0.99555 69.1413 1.19141 69.0034C1.251 68.9615 1.29406 68.9255 1.32031 68.8979C1.32458 68.8934 1.32481 68.8861 1.32812 68.8823C1.23947 68.6836 1.14329 68.4843 1.03906 68.2847C0.83794 67.8995 0.854788 67.4872 1.07422 67.1167C1.0864 67.0961 1.09243 67.0828 1.09375 67.0776V67.0737C1.09371 67.0732 1.0911 67.0666 1.08594 67.0542C1.08053 67.0413 1.07171 67.0197 1.05078 66.9917C0.919361 66.8163 0.822886 66.6032 0.816406 66.3628C0.810274 66.1215 0.896797 65.9069 1.02344 65.7261C1.09392 65.6255 1.08294 65.5812 1.0625 65.5347C0.953378 65.2877 0.86047 65.0386 0.789063 64.7886C0.664395 64.3518 0.834599 63.9641 1.10937 63.6675C0.93814 63.5232 0.77997 63.3443 0.699219 63.1206C0.610357 62.8741 0.630577 62.6189 0.742188 62.3901L0.996094 61.9761C1.0945 61.8416 1.20784 61.7087 1.33203 61.5815C1.33784 61.5755 1.33939 61.567 1.34375 61.562C1.20335 61.3876 1.09876 61.1678 1.09766 60.9136C1.09676 60.6553 1.20395 60.4336 1.34766 60.2573C1.48574 60.0883 1.53492 59.955 1.54297 59.855C1.54536 59.8251 1.53938 59.7331 1.375 59.5659C1.13524 59.3228 0.923119 59.0741 0.742188 58.8237C0.592667 58.6167 0.509581 58.3517 0.582031 58.0659C0.648303 57.8054 0.822762 57.6066 1.00391 57.4604C1.01978 57.4476 1.02836 57.4315 1.03906 57.4214C0.856933 57.1764 0.711921 56.9212 0.617188 56.6558C0.464192 56.2251 0.592338 55.8185 0.863281 55.4917C1.02202 55.3002 1.12531 55.1211 1.1875 54.9565C1.24563 54.8025 1.26428 54.6561 1.24609 54.5151C1.21625 54.2838 1.18672 54.0512 1.16406 53.8198C1.13364 53.5065 1.18343 53.1974 1.30469 52.9019C1.34894 52.7937 1.35295 52.6999 1.3125 52.5933C1.26032 52.457 1.14737 52.2875 0.941406 52.0933C0.773025 51.9343 0.616274 51.7194 0.585938 51.4448C0.554449 51.1573 0.671251 50.9107 0.828125 50.7261C0.999432 50.5248 1.13559 50.327 1.24219 50.1362C1.23306 50.1205 1.21669 50.0906 1.17578 50.0503C1.01598 49.8933 0.876015 49.6903 0.828125 49.4448C0.778169 49.1866 0.844172 48.944 0.972656 48.7417C1.05997 48.6036 1.06947 48.5016 1.05469 48.4175C0.987789 48.0348 1.10293 47.6781 1.32422 47.3745C1.31559 47.3649 1.30658 47.3521 1.29297 47.3394C1.00745 47.0733 0.78717 46.7666 0.695313 46.4175C0.567167 45.9285 0.819072 45.5212 1.14453 45.2378C1.00018 45.0779 0.88016 44.8743 0.863281 44.6245C0.844593 44.3456 0.959665 44.11 1.11328 43.9292C1.26391 43.7519 1.32648 43.6019 1.34766 43.4839C1.35667 43.4327 1.35537 43.3474 1.24219 43.2026C0.983455 42.8731 0.864127 42.4686 1.01172 42.0464C1.04652 41.947 1.04452 41.8531 0.992188 41.7378C0.892262 41.5172 0.876439 41.276 0.953125 41.0386C1.02579 40.8144 1.17143 40.6284 1.33594 40.48C1.42703 40.3976 1.47025 40.334 1.48828 40.2964C1.50283 40.2654 1.50085 40.2514 1.5 40.2456C1.46048 39.975 1.45811 39.7039 1.49219 39.4331C1.52008 39.2124 1.54179 38.9897 1.5625 38.769C1.56359 38.7574 1.57098 38.6688 1.38672 38.4956C1.21336 38.3323 1.05056 38.0976 1.04687 37.7964C1.04363 37.4925 1.20517 37.2546 1.37891 37.0894C1.54659 36.9294 1.54065 36.8496 1.53906 36.8354C1.52758 36.7402 1.4754 36.6022 1.31641 36.4253C1.16588 36.2576 1.04233 36.0448 1.02344 35.7886C1.00427 35.5258 1.10157 35.2938 1.24219 35.1089C1.34807 34.9692 1.35388 34.8816 1.34375 34.8237C1.28695 34.5106 1.31136 34.1973 1.41406 33.894C1.47697 33.7087 1.51367 33.5259 1.52344 33.3472C1.53486 33.1377 1.53317 32.9279 1.52344 32.7183C1.51884 32.6194 1.47844 32.488 1.34766 32.3198C1.08108 31.977 0.982167 31.5577 1.16797 31.1323C1.21017 31.0358 1.21119 30.9542 1.16797 30.855C1.07143 30.6357 0.965996 30.4147 0.855469 30.1948C0.728713 29.9427 0.725893 29.6643 0.851563 29.4097C0.963692 29.1838 1.16097 29.0088 1.36328 28.8745C1.42803 28.8315 1.47593 28.7958 1.50781 28.7651C1.52437 28.7492 1.53138 28.7318 1.53906 28.7222C1.45367 28.4658 1.40292 28.2053 1.39844 27.9409C1.39659 27.845 1.35888 27.7188 1.23437 27.5542C1.02777 27.2811 0.882278 26.9852 0.816406 26.6714C0.768911 26.4451 0.719822 26.2179 0.671875 25.9917C0.612974 25.7131 0.599821 25.4326 0.632813 25.1519C0.663233 24.8939 0.717917 24.6366 0.796875 24.3823C0.906806 24.0285 1.15655 23.7268 1.46875 23.4683C1.57068 23.3839 1.61069 23.3217 1.625 23.2925C1.62754 23.2872 1.62809 23.2832 1.62891 23.2808C1.61424 23.2198 1.54745 23.0849 1.29297 22.8901C1.10104 22.7434 0.876352 22.5039 0.867188 22.1636C0.857967 21.8158 1.07812 21.568 1.26953 21.4175V21.4136C1.12477 21.2391 1.01222 21.0078 1.04687 20.73C1.08403 20.4362 1.27056 20.2165 1.45312 20.0659C1.45911 20.061 1.45981 20.0508 1.46484 20.0464C1.3335 19.8821 1.22679 19.6823 1.22266 19.4409C1.21808 19.1708 1.33679 18.9412 1.48828 18.7651C1.49769 18.7541 1.49901 18.7411 1.50391 18.7339C1.50128 18.7301 1.49967 18.7229 1.49609 18.7183C1.24716 18.3975 1.12244 18.0106 1.23828 17.5972C1.25302 17.5446 1.2566 17.4733 1.16406 17.3433C1.0374 17.1655 0.950753 16.9523 0.949219 16.7144C0.947843 16.4756 1.03366 16.2606 1.16016 16.0815C1.29237 15.8944 1.42154 15.7062 1.55078 15.519C1.52178 15.4973 1.48473 15.4688 1.4375 15.4409C1.22588 15.3158 0.939913 15.103 0.878906 14.7573C0.810046 14.3671 1.06081 14.0947 1.25781 13.9448C1.12336 13.8061 1.00499 13.6437 0.949219 13.4448C0.879698 13.1967 0.916747 12.9534 1.03125 12.7378L1.46094 12.0229C1.45123 12.01 1.43925 11.9892 1.41797 11.9683C1.24681 11.7995 1.09026 11.5582 1.10156 11.2534C1.11247 10.9698 1.26847 10.7513 1.43359 10.5933C1.27735 10.4438 1.1379 10.2553 1.08594 10.019C1.02718 9.75137 1.09393 9.50131 1.23047 9.29639C1.38345 9.06705 1.53884 8.84734 1.69141 8.63623C1.76787 8.53027 1.77595 8.45272 1.76172 8.37842C1.69521 8.03691 1.74992 7.70316 1.92578 7.40186C2.02478 7.23233 2.10539 7.06111 2.16797 6.89014C2.19273 6.82219 2.20405 6.6981 2.14062 6.48389C2.04437 6.15912 1.99747 5.83342 2.00391 5.51123C2.01116 5.15296 2.11531 4.81941 2.32812 4.53467C2.48563 4.32401 2.65843 4.12696 2.84375 3.94092C2.99835 3.78573 3.14257 3.62119 3.27734 3.44873C3.58901 3.04984 4.07232 2.99632 4.50781 3.06982C4.56712 3.07985 4.60965 3.08299 4.63672 3.08154L4.64062 3.07764C4.74611 2.79996 4.88336 2.54417 5.05469 2.31201C5.18868 2.13049 5.37034 1.99259 5.59766 1.9292C5.81722 1.86814 6.04051 1.88637 6.24609 1.94092L6.34375 1.95264C6.34643 1.95039 6.35442 1.94065 6.36719 1.92139C6.57231 1.61228 6.85414 1.38237 7.21484 1.28467C7.50195 1.2069 7.7983 1.18708 8.09766 1.22217C8.2914 1.24477 8.47369 1.23983 8.64453 1.21045C8.83255 1.17806 9.02551 1.1245 9.22266 1.05029C9.50671 0.943481 9.79992 0.892903 10.0977 0.905762C10.4574 0.921365 10.7842 1.07407 11.0703 1.3042C11.1312 1.35312 11.1653 1.36471 11.1758 1.3667H11.1875C11.1922 1.36598 11.2056 1.36307 11.2227 1.35498C11.4212 1.26076 11.6228 1.14238 11.8281 0.999512C11.9981 0.881157 12.1963 0.795372 12.4141 0.776856C12.6337 0.758333 12.8408 0.811625 13.0273 0.909668C13.0689 0.931535 13.0927 0.929834 13.1016 0.929199C13.1137 0.928041 13.1462 0.921719 13.1992 0.886231C13.5275 0.66683 13.9056 0.579963 14.2969 0.694824C14.6652 0.803053 14.9729 1.07292 15.2305 1.40186C15.3194 1.51509 15.3913 1.57703 15.4414 1.60889C15.4655 1.62409 15.4827 1.63333 15.4922 1.63623C15.5009 1.6389 15.5059 1.63625 15.5078 1.63623C15.5787 1.63512 15.6956 1.60603 15.8633 1.45654C16.1413 1.20842 16.4592 1.03002 16.8164 0.987793C16.9517 0.971884 17.1075 0.919299 17.2812 0.804199C17.5892 0.600371 17.9357 0.494583 18.3047 0.546387C18.7008 0.602328 19.0141 0.870271 19.2617 1.18701C19.407 1.01882 19.6168 0.853484 19.8984 0.831543C20.2408 0.805506 20.4962 1.00441 20.6562 1.19092C20.7221 1.26737 20.7661 1.29788 20.7852 1.30811C21.1566 1.16496 21.5142 1.23496 21.8281 1.43311C21.8461 1.41053 21.871 1.38425 21.8945 1.34717C22.0227 1.14528 22.2681 0.84509 22.6602 0.847168C23.0142 0.84985 23.2439 1.09962 23.3789 1.29639C23.517 1.14327 23.6952 0.995659 23.9375 0.956543C24.2684 0.903583 24.5337 1.06226 24.7109 1.2417C24.8913 1.42449 25.0246 1.48048 25.1055 1.4917C25.2918 1.51744 25.4783 1.51907 25.6641 1.49951C25.8369 1.48125 26.015 1.43383 26.1992 1.35498C26.358 1.28694 26.5361 1.16953 26.7305 0.983887C26.9059 0.816275 27.1511 0.675854 27.4531 0.698731C27.7449 0.721036 27.9709 0.886932 28.1289 1.06201L28.2773 1.18701C28.6681 1.05791 29.0502 1.13721 29.3828 1.35498C29.3959 1.34594 29.4158 1.32997 29.4414 1.3042C29.7086 1.03511 30.0105 0.828547 30.3516 0.741699L30.543 0.714356C30.9737 0.691311 31.3157 0.972501 31.5508 1.27686C31.6408 1.39337 31.7144 1.45445 31.7617 1.48389C31.7832 1.49712 31.7982 1.50156 31.8047 1.50342L31.8086 1.50732C31.9912 1.49825 32.1789 1.46451 32.3672 1.40576C32.5024 1.36355 32.6643 1.26907 32.8516 1.09326C33.1302 0.831245 33.4587 0.641396 33.832 0.608887C34.1375 0.582424 34.4388 0.6284 34.7305 0.737793C35.0318 0.850898 35.3131 1.03842 35.5742 1.28076C35.7358 1.43091 35.8318 1.44065 35.8711 1.43701C35.9777 1.42684 36.115 1.3766 36.2852 1.2417C36.4713 1.09399 36.7097 0.988333 36.9844 1.01514C37.2049 1.03667 37.3816 1.14756 37.5312 1.27295C37.5349 1.2679 37.5391 1.26293 37.543 1.25732C37.6801 1.05808 37.8924 0.827289 38.2031 0.769043C38.5534 0.703686 38.8305 0.886463 39.0039 1.07373C39.1861 1.27036 39.3159 1.32729 39.3906 1.33936C39.6154 1.37415 39.8416 1.4086 40.0664 1.44092C40.1757 1.45664 40.2968 1.43922 40.4414 1.36279C40.7925 1.1769 41.1756 1.14738 41.5469 1.30029C41.7062 1.3659 41.8543 1.38995 41.9961 1.37842C42.1272 1.36761 42.2757 1.31875 42.4453 1.21045C42.7077 1.04265 42.9813 0.914125 43.2617 0.835449C43.559 0.752238 43.8619 0.737858 44.1641 0.792481C44.506 0.854437 44.8158 1.03219 45.0898 1.27686C45.2339 1.40524 45.2976 1.38702 45.3164 1.38232C45.565 1.32028 45.816 1.27501 46.0664 1.24951C46.3506 1.22074 46.634 1.24315 46.9141 1.31201C47.1384 1.3673 47.3601 1.4454 47.582 1.53076C47.5901 1.52327 47.602 1.51587 47.6133 1.50342C47.6454 1.46788 47.6857 1.41532 47.7305 1.34326C47.9708 0.956498 48.3142 0.57144 48.7969 0.534668C49.2103 0.503857 49.5701 0.694414 49.8594 0.968262C50.0454 1.14437 50.2267 1.28787 50.4023 1.40186C50.4216 1.38307 50.4481 1.35754 50.4766 1.31982C50.6184 1.13214 50.8083 0.949474 51.0586 0.866699C51.2688 0.797305 51.4736 0.815716 51.6562 0.890137L51.832 0.979981L52.0625 1.10107C52.1341 1.12667 52.2012 1.13712 52.2617 1.14014C52.5041 1.15226 52.7463 1.17887 52.9883 1.21436C53.1635 1.24002 53.34 1.2357 53.5156 1.20654C53.611 1.19022 53.7507 1.12978 53.9297 0.956543C54.2382 0.658257 54.6468 0.472817 55.1055 0.616699C55.4502 0.72491 55.7501 0.959217 56.0117 1.25732C56.1958 1.46708 56.3135 1.50335 56.3594 1.50732C56.5991 1.52813 56.8388 1.55716 57.0781 1.59717H57.082C57.0844 1.59676 57.0933 1.59343 57.1094 1.58545C57.1452 1.56742 57.2115 1.52547 57.2969 1.42529C57.5858 1.08619 58.0138 0.817823 58.5234 0.999512C58.6413 1.04158 58.7494 1.04121 58.8672 0.999512C59.1848 0.886525 59.514 0.868892 59.8398 0.952637C59.9674 0.985483 60.0948 0.981143 60.2305 0.933106C60.6069 0.800246 60.9839 0.851309 61.3242 1.04639C61.4656 1.12733 61.5777 1.14005 61.6758 1.12451C61.7908 1.1061 61.9369 1.04532 62.1133 0.897949C62.446 0.619313 62.8678 0.491287 63.3047 0.667481C63.5062 0.748678 63.705 0.812012 63.9023 0.854981C64.2077 0.921501 64.4807 1.08418 64.7344 1.29639C64.7405 1.28892 64.7508 1.28213 64.7578 1.27295C64.9017 1.0838 65.1118 0.886545 65.4023 0.831543C65.7241 0.771312 65.9943 0.910795 66.1797 1.08545C66.2133 1.11702 66.2399 1.13755 66.2578 1.14795C66.2659 1.15258 66.2734 1.15418 66.2773 1.15576C66.2798 1.1549 66.2839 1.15441 66.2891 1.15186C66.5608 1.01471 66.8437 0.926227 67.1328 0.890137C67.4736 0.847827 67.8039 0.919225 68.1094 1.08154C68.1545 1.10559 68.1824 1.10554 68.1953 1.10498C68.2098 1.10417 68.2413 1.10169 68.293 1.06982C68.5478 0.912298 68.8088 0.786088 69.0742 0.694824C69.546 0.532931 69.9667 0.731915 70.2734 1.04248C70.3062 1.07554 70.3297 1.09231 70.3437 1.10107C70.5909 0.950195 70.8395 0.820677 71.0937 0.722168C71.3675 0.616165 71.6489 0.555025 71.9336 0.542481C72.257 0.528248 72.5693 0.606679 72.8633 0.757324C73.0421 0.849006 73.2113 0.899166 73.3711 0.917481C73.6334 0.947276 73.8946 1.00813 74.1523 1.09326C74.3321 1.15262 74.5077 1.18094 74.6797 1.18311C74.814 1.18465 74.9619 1.15082 75.125 1.06592C75.425 0.909769 75.7457 0.837486 76.0781 0.866699C76.4662 0.901235 76.7997 1.11129 77.0742 1.39404C77.1511 1.47329 77.1996 1.49832 77.2148 1.50342H77.2187C77.2176 1.50351 77.22 1.50189 77.2266 1.49951C77.4005 1.43672 77.5837 1.3375 77.7773 1.19482C77.9682 1.05419 78.2087 0.966989 78.4766 0.999512C78.7341 1.031 78.9438 1.1654 79.1055 1.32373C79.1519 1.3692 79.182 1.38774 79.1953 1.39404L79.1992 1.39014C79.4214 1.26958 79.6449 1.14359 79.8672 1.01514L80.0352 0.937012C80.2123 0.874407 80.4057 0.865344 80.6016 0.925293C80.8063 0.98818 80.9694 1.12041 81.1055 1.26514C81.2412 1.08815 81.4119 0.917644 81.6367 0.831543C81.9084 0.727528 82.1826 0.769867 82.4141 0.909668C82.4982 0.960444 82.5402 0.955233 82.6055 0.921387C82.9861 0.723983 83.3917 0.738603 83.7617 0.948731C83.7665 0.951432 83.7703 0.955122 83.7734 0.956543C83.7825 0.9532 83.8118 0.941195 83.8594 0.897949L84.0195 0.776856C84.1929 0.66948 84.407 0.607473 84.6484 0.663574C84.9346 0.730564 85.1405 0.93821 85.2812 1.13232C85.2915 1.1465 85.3037 1.15672 85.3125 1.16748C85.5587 0.971434 85.8188 0.820661 86.1016 0.741699C86.3358 0.676317 86.5701 0.615504 86.8047 0.562012C87.1917 0.473742 87.5599 0.574495 87.8789 0.792481C88.0623 0.917623 88.2316 0.991341 88.3867 1.02686C88.6473 1.08642 88.9057 1.17478 89.1602 1.28857C89.1883 1.30103 89.2009 1.29751 89.207 1.29639C89.2197 1.29382 89.2572 1.28125 89.3203 1.22998C89.6451 0.966247 90.0468 0.839179 90.4727 0.979981C90.7487 1.0714 91.01 1.22108 91.2617 1.40967C91.272 1.39995 91.287 1.39015 91.3008 1.37451C91.5765 1.06144 91.9439 0.811396 92.3945 0.847168C92.7198 0.873449 93.0292 0.992677 93.3125 1.1792C93.3359 1.19449 93.3518 1.20022 93.3594 1.20264L93.3633 1.20654H93.3672L93.4297 1.17529C93.7606 0.944444 94.1468 0.852682 94.5469 0.979981C94.6963 1.02755 94.8386 1.03399 94.9805 1.00732C95.3932 0.928884 95.7592 1.09059 96.0547 1.34717L96.0625 1.33936C96.2152 1.16808 96.4202 1.00832 96.6797 0.956543C96.957 0.901845 97.2102 0.987615 97.4102 1.13232C97.5873 1.26035 97.7433 1.32452 97.8789 1.34717C97.9351 1.35636 98.0233 1.34988 98.168 1.23779C98.4147 1.04627 98.667 0.880745 98.9219 0.745606C99.2419 0.576133 99.5903 0.51682 99.9453 0.597168C100.118 0.636502 100.291 0.647614 100.461 0.628418C100.693 0.602231 100.924 0.579796 101.156 0.562012C101.543 0.532364 101.895 0.681401 102.191 0.921387C102.372 1.06746 102.53 1.14162 102.664 1.17139C102.749 1.19016 102.847 1.1808 102.98 1.10107C103.23 0.9522 103.482 0.827256 103.738 0.729981C104.033 0.61794 104.339 0.576284 104.648 0.608887C105.06 0.652407 105.395 0.91188 105.66 1.22998C105.747 1.33413 105.816 1.38558 105.859 1.40967C105.892 1.42781 105.907 1.42949 105.91 1.4292C105.992 1.42185 106.119 1.37605 106.293 1.21436C106.478 1.04159 106.745 0.900683 107.062 0.956543C107.317 1.00132 107.502 1.16389 107.645 1.32764C107.792 1.15155 108.01 0.970244 108.312 0.956543C108.611 0.943637 108.837 1.10062 108.992 1.26514C109.127 1.09085 109.299 0.922606 109.523 0.839356C109.731 0.762716 109.938 0.77281 110.125 0.843262L110.305 0.933106L110.43 0.983887C110.462 0.986971 110.491 0.980343 110.52 0.968262C110.723 0.881919 110.946 0.855207 111.168 0.905762C111.383 0.954913 111.569 1.06806 111.727 1.20654C111.897 1.35657 112.024 1.40005 112.109 1.40576C112.183 1.41057 112.293 1.38735 112.449 1.26514C112.624 1.12865 112.839 1.0284 113.086 1.02295C113.334 1.01779 113.554 1.10879 113.734 1.2417C113.86 1.334 113.924 1.32604 113.969 1.31201C114.118 1.2652 114.286 1.17222 114.473 1.01514C114.648 0.867596 114.873 0.756536 115.137 0.757324C115.4 0.758444 115.626 0.870654 115.801 1.01904C115.867 1.0753 115.905 1.08755 115.914 1.08936H115.922C115.925 1.08898 115.934 1.0882 115.949 1.08154C116.184 0.975011 116.42 0.875265 116.656 0.784668C116.896 0.692469 117.148 0.70113 117.379 0.804199C117.563 0.886857 117.711 1.02883 117.84 1.1792C117.991 0.994715 118.235 0.790525 118.578 0.819824C118.932 0.850106 119.16 1.11391 119.293 1.31592C119.306 1.33603 119.321 1.35182 119.332 1.3667C119.551 1.19074 119.771 1.03493 120 0.913574C120.205 0.805021 120.439 0.760902 120.68 0.812012C120.91 0.861197 121.104 0.989628 121.262 1.14014C121.421 1.29212 121.51 1.29546 121.543 1.29248C121.598 1.28686 121.719 1.24602 121.902 1.04248C122.056 0.871942 122.262 0.7163 122.523 0.667481C122.803 0.615783 123.056 0.704294 123.254 0.851074C123.364 0.932788 123.408 0.917332 123.445 0.901856C123.764 0.769623 124.099 0.738938 124.434 0.819824C124.691 0.881987 124.947 0.966239 125.199 1.07764C125.294 1.11951 125.371 1.12202 125.469 1.07764C125.882 0.889124 126.298 0.964329 126.648 1.21826C126.702 1.25718 126.733 1.26395 126.742 1.26514C126.745 1.26543 126.763 1.26981 126.801 1.24951C126.986 1.1507 127.191 1.09756 127.41 1.11279C127.627 1.12801 127.825 1.20819 127.996 1.32373C128.132 1.41507 128.223 1.42057 128.293 1.40576C128.405 1.38209 128.553 1.30991 128.734 1.14014C128.92 0.967092 129.185 0.828713 129.504 0.886231C129.793 0.93908 130.003 1.13597 130.148 1.32373C130.154 1.32126 130.161 1.31957 130.168 1.31592C130.21 1.29387 130.272 1.25334 130.348 1.18701L130.488 1.06201H130.777V1.67529L131.004 1.93701C130.779 2.13441 130.505 2.30843 130.191 2.33154C129.834 2.3575 129.551 2.18142 129.359 1.93311L129.352 1.92529C129.096 2.14943 128.815 2.31574 128.5 2.38232C128.118 2.46289 127.754 2.36521 127.437 2.15186C127.382 2.1145 127.349 2.10956 127.34 2.10889C127.332 2.10841 127.309 2.11102 127.27 2.13232C127.082 2.23228 126.871 2.28256 126.648 2.26123C126.428 2.23996 126.231 2.14973 126.062 2.02686C126.002 1.98294 125.964 1.97433 125.949 1.97217C125.938 1.97061 125.918 1.97166 125.883 1.98779C125.527 2.14967 125.151 2.1537 124.793 1.99561C124.592 1.90682 124.395 1.83587 124.199 1.78857C124.082 1.76015 123.962 1.76823 123.828 1.82373C123.423 1.99209 123.025 1.91023 122.687 1.67139C122.676 1.68147 122.664 1.6969 122.648 1.71436C122.379 2.01397 122.046 2.24731 121.648 2.28857C121.227 2.33168 120.861 2.14058 120.57 1.86279C120.514 1.80857 120.48 1.7952 120.473 1.79248L120.469 1.79639C120.278 1.89718 120.082 2.03205 119.879 2.20264C119.668 2.37975 119.375 2.48742 119.055 2.37842C118.814 2.29632 118.643 2.11213 118.512 1.9292C118.366 2.09396 118.159 2.25846 117.875 2.26904C117.522 2.28153 117.271 2.05477 117.121 1.86279C117.056 1.77968 117.008 1.74532 116.984 1.72998C116.778 1.81008 116.571 1.89778 116.363 1.9917C116.163 2.08253 115.942 2.11407 115.719 2.06982C115.501 2.02673 115.312 1.9167 115.152 1.78076C115.146 1.77511 115.138 1.77281 115.133 1.76904C115.128 1.7724 115.123 1.77603 115.117 1.78076C114.852 2.00364 114.569 2.17439 114.266 2.26904C113.858 2.39621 113.468 2.28792 113.141 2.04639C113.126 2.03538 113.113 2.03041 113.105 2.02686C113.097 2.03112 113.082 2.03928 113.062 2.0542C112.766 2.28591 112.422 2.42701 112.043 2.40186C111.675 2.37732 111.349 2.20465 111.066 1.95654C110.999 1.89745 110.958 1.88539 110.945 1.88232C110.94 1.88109 110.936 1.87821 110.934 1.87842C110.931 1.87876 110.923 1.8808 110.91 1.88623C110.541 2.04243 110.17 2.00111 109.836 1.81201C109.816 1.83216 109.791 1.86127 109.762 1.90186C109.62 2.09706 109.387 2.32627 109.051 2.35107C108.739 2.37344 108.505 2.20851 108.348 2.03857C108.199 2.21734 107.977 2.40843 107.664 2.41357C107.316 2.4192 107.071 2.19512 106.922 2.00342L106.914 1.99561C106.649 2.22713 106.345 2.39419 106 2.42529C105.535 2.46692 105.162 2.19573 104.891 1.87061C104.703 1.64503 104.584 1.60544 104.543 1.60107C104.399 1.58603 104.252 1.60741 104.094 1.66748C103.897 1.74238 103.696 1.83863 103.492 1.96045C103.173 2.15152 102.817 2.22913 102.449 2.14795C102.131 2.07728 101.834 1.91802 101.562 1.69873C101.406 1.57247 101.301 1.55312 101.234 1.55811C101.014 1.57502 100.791 1.59565 100.57 1.62061C100.288 1.65237 100.006 1.63706 99.7266 1.57373C99.6291 1.55156 99.5232 1.562 99.3906 1.63232C99.1922 1.73755 98.9877 1.86659 98.7812 2.02686C98.474 2.2653 98.1115 2.39743 97.7148 2.33154C97.4089 2.28043 97.1227 2.14836 96.8555 1.96045C96.8431 1.97136 96.8265 1.98718 96.8086 2.00732C96.6526 2.18204 96.4337 2.34826 96.1484 2.37842C95.8485 2.41 95.5985 2.27746 95.418 2.11279C95.2667 1.97517 95.192 1.98714 95.168 1.9917C94.8575 2.05046 94.545 2.02953 94.2422 1.93311C94.1892 1.91652 94.1214 1.91093 94 1.99561C93.8241 2.11789 93.6176 2.20175 93.3867 2.20654C93.154 2.21112 92.9424 2.13398 92.7617 2.01514C92.592 1.90343 92.4443 1.85375 92.3164 1.84326C92.3145 1.84311 92.2278 1.83371 92.0508 2.03467C91.898 2.20819 91.6921 2.37257 91.4258 2.42139C91.141 2.47354 90.8878 2.37701 90.6914 2.22607C90.5011 2.0797 90.3239 1.9836 90.1602 1.9292C90.1331 1.92025 90.0775 1.90306 89.9492 2.00732C89.7882 2.13792 89.6011 2.24138 89.3867 2.28076C89.1662 2.32106 88.948 2.28727 88.75 2.19873C88.5518 2.11023 88.3562 2.04343 88.1641 1.99951C87.8666 1.93142 87.5815 1.80054 87.3125 1.6167C87.1791 1.52577 87.0934 1.51979 87.0273 1.53467C86.8089 1.58449 86.5898 1.6416 86.3711 1.70264C86.2299 1.74204 86.0645 1.83004 85.8789 1.98779C85.6784 2.15773 85.3992 2.26995 85.0859 2.18701C84.8104 2.11334 84.6128 1.91148 84.4727 1.71826C84.4651 1.70787 84.4559 1.69933 84.4492 1.69092C84.3035 1.80739 84.1396 1.91068 83.9414 1.94482C83.699 1.98636 83.4691 1.92935 83.2695 1.81592C83.1868 1.76887 83.1384 1.77092 83.0664 1.80811C82.6993 1.99863 82.3142 1.98289 81.9609 1.79248C81.9395 1.81319 81.9124 1.84815 81.8789 1.89404C81.7367 2.08835 81.5091 2.31396 81.1797 2.34326C80.8298 2.37423 80.5726 2.1686 80.4141 1.97998C80.3801 1.93955 80.3514 1.9134 80.332 1.89795C80.1128 2.02427 79.8952 2.14998 79.6758 2.26904C79.4696 2.38093 79.2321 2.42782 78.9883 2.37451C78.7556 2.32354 78.5627 2.1918 78.4062 2.03857C78.3892 2.02189 78.3739 2.01135 78.3633 2.00342C78.1067 2.19165 77.8424 2.34128 77.5664 2.44092C77.0885 2.61312 76.6619 2.40925 76.3555 2.09326C76.1777 1.90995 76.0572 1.86886 75.9922 1.86279C75.872 1.85209 75.7387 1.87311 75.5859 1.95264C75.2963 2.10336 74.9901 2.18643 74.6719 2.18311C74.3916 2.17989 74.1123 2.13235 73.8398 2.04248C73.6443 1.97789 73.4488 1.93527 73.2578 1.91357C72.9651 1.88015 72.6799 1.78828 72.4062 1.64795C72.2475 1.56673 72.106 1.53678 71.9766 1.54248C71.8086 1.55001 71.6359 1.58656 71.457 1.65576C71.2609 1.73173 71.0589 1.8319 70.8555 1.95654C70.6523 2.08072 70.4111 2.14028 70.1562 2.08936C69.9142 2.04053 69.7149 1.90386 69.5586 1.74561C69.4837 1.66992 69.4361 1.64642 69.418 1.64014L69.4102 1.63623C69.4089 1.63644 69.4028 1.63864 69.3984 1.64014C69.2112 1.70453 69.0182 1.79534 68.8203 1.91748C68.4494 2.1468 68.0315 2.17238 67.6406 1.96436C67.4933 1.88599 67.3698 1.86848 67.2578 1.88232C67.0942 1.90263 66.9232 1.95509 66.7422 2.04639C66.537 2.14991 66.3061 2.18743 66.0703 2.13623C65.8737 2.09322 65.7067 1.98862 65.5625 1.8667C65.5597 1.87023 65.5576 1.87455 65.5547 1.87842C65.4108 2.06783 65.2023 2.26733 64.918 2.32764C64.6036 2.3936 64.3358 2.2637 64.1445 2.09326C63.9628 1.93114 63.8079 1.85775 63.6875 1.83154C63.4329 1.77599 63.1801 1.69808 62.9297 1.59717C62.9049 1.58717 62.8925 1.58732 62.8828 1.58936C62.8674 1.5927 62.8254 1.60711 62.7578 1.66357C62.4818 1.89472 62.1735 2.05849 61.8359 2.11279C61.4814 2.16955 61.1392 2.09159 60.8281 1.91357C60.7156 1.84909 60.6388 1.84753 60.5625 1.87451C60.2448 1.98701 59.9156 2.00523 59.5898 1.92139C59.463 1.88896 59.3382 1.89287 59.2031 1.94092C58.8713 2.05898 58.5312 2.0569 58.1992 1.94092C58.1804 1.94992 58.1303 1.98502 58.0547 2.07373C57.778 2.39791 57.3918 2.66122 56.9141 2.58154C56.7006 2.54586 56.4865 2.52192 56.2734 2.50342C55.8665 2.46813 55.5307 2.22367 55.2617 1.91748C55.07 1.69906 54.9132 1.60387 54.8047 1.56982C54.792 1.56599 54.7838 1.56517 54.7695 1.56982C54.747 1.57746 54.699 1.60379 54.625 1.67529C54.3519 1.93961 54.0337 2.13542 53.6758 2.19482C53.399 2.24056 53.121 2.24322 52.8437 2.20264C52.6328 2.1717 52.4215 2.15064 52.2109 2.14014C51.9 2.12463 51.6069 2.01991 51.3359 1.85107C51.319 1.86841 51.2973 1.89372 51.2734 1.92529C51.1321 2.11208 50.9464 2.2922 50.7031 2.37842C50.4307 2.47466 50.1597 2.42798 49.9336 2.28857C49.6735 2.12802 49.4192 1.92887 49.1719 1.69482C49.0079 1.53957 48.911 1.5317 48.8711 1.53467C48.8613 1.53941 48.8426 1.55169 48.8164 1.57373C48.7572 1.6239 48.678 1.71633 48.582 1.87061C48.4502 2.0828 48.2842 2.2826 48.0742 2.40967C47.8397 2.55136 47.5617 2.59313 47.2891 2.48389C47.083 2.40133 46.8789 2.33473 46.6758 2.28467C46.5039 2.24231 46.3357 2.22871 46.168 2.24561C45.9661 2.26617 45.7623 2.30412 45.5586 2.35498C45.1241 2.46359 44.7307 2.29869 44.4219 2.02295C44.2436 1.86386 44.0993 1.79737 43.9883 1.77686C43.8379 1.74962 43.6865 1.75676 43.5312 1.80029C43.3583 1.84883 43.1753 1.9321 42.9844 2.0542C42.7024 2.23428 42.3987 2.3481 42.0781 2.37451C41.7667 2.39983 41.458 2.34712 41.1641 2.22607C41.0826 2.19278 41.0117 2.1919 40.9102 2.24561C40.602 2.40877 40.2693 2.47834 39.9258 2.4292C39.6973 2.39635 39.4667 2.363 39.2383 2.32764C38.898 2.27469 38.6072 2.08407 38.3555 1.83545C38.2185 2.03109 38.0197 2.24834 37.7305 2.31592C37.3919 2.39451 37.1111 2.23705 36.9258 2.0542C36.9143 2.04283 36.9028 2.03366 36.8945 2.02686C36.6146 2.2469 36.3037 2.39744 35.9609 2.4292C35.5472 2.46726 35.1861 2.28615 34.8945 2.01514C34.703 1.83723 34.5301 1.72813 34.3789 1.67139C34.2181 1.61126 34.0651 1.59223 33.918 1.60498C33.8383 1.61214 33.7126 1.65681 33.5391 1.81982C33.2737 2.0694 32.9818 2.25973 32.6641 2.35889C32.3991 2.44153 32.1299 2.48998 31.8594 2.50342C31.3874 2.52635 31.024 2.22574 30.7617 1.88623C30.6757 1.77491 30.6133 1.73293 30.5859 1.71826C30.4759 1.74959 30.33 1.8288 30.1523 2.00732C29.9941 2.16671 29.7883 2.30808 29.5391 2.35107C29.2784 2.39553 29.0384 2.32242 28.8398 2.19092C28.7215 2.11252 28.6531 2.11682 28.5937 2.13623C28.1028 2.29843 27.6813 2.05926 27.3867 1.73389C27.1378 1.96631 26.8754 2.15212 26.5937 2.27295C26.3252 2.38788 26.0494 2.46601 25.7695 2.49561C25.503 2.52367 25.2348 2.51676 24.9687 2.47998C24.6265 2.43251 24.3284 2.2507 24.0703 2.00732C23.9222 2.20324 23.6565 2.45349 23.2734 2.40576C22.9829 2.3694 22.7828 2.17386 22.6484 1.9917C22.5248 2.1608 22.3755 2.32747 22.168 2.41357C21.8638 2.53895 21.5641 2.46724 21.3359 2.29639C21.2222 2.21099 21.1766 2.22733 21.1406 2.2417C20.9118 2.33274 20.6684 2.33387 20.4375 2.24561C20.2508 2.17405 20.0978 2.04628 19.9648 1.90576C19.8157 2.09074 19.5791 2.29515 19.2461 2.28857C18.896 2.28142 18.6549 2.04595 18.5117 1.85107C18.3139 1.5816 18.1913 1.54242 18.1641 1.53857C18.0808 1.5272 17.9759 1.54103 17.832 1.63623C17.5524 1.82145 17.2516 1.94258 16.9336 1.97998C16.8378 1.99133 16.7022 2.04664 16.5273 2.20264C16.2421 2.45679 15.9053 2.63026 15.5234 2.63623C15.0636 2.64336 14.7045 2.35109 14.4414 2.01514C14.247 1.76724 14.1005 1.68106 14.0156 1.65576C13.9542 1.63774 13.8787 1.63468 13.7539 1.71826C13.583 1.83266 13.3874 1.90972 13.1719 1.92529C12.954 1.94095 12.7476 1.8899 12.5625 1.79248C12.5266 1.77374 12.5078 1.77251 12.5 1.77295C12.4911 1.77371 12.4588 1.78054 12.4023 1.81982C12.1553 1.99188 11.9024 2.13689 11.6484 2.25732C11.4524 2.35012 11.2381 2.38758 11.0156 2.35107C10.7976 2.31509 10.6043 2.21646 10.4414 2.08545C10.2746 1.95131 10.1481 1.90992 10.0547 1.90576C9.89935 1.89905 9.73997 1.92541 9.57422 1.98779C9.32176 2.08279 9.06717 2.15103 8.8125 2.19482C8.54086 2.2415 8.26309 2.24745 7.98047 2.21436C7.80285 2.19354 7.63581 2.20642 7.47656 2.24951C7.39117 2.27264 7.2995 2.33085 7.20312 2.47607C7.0769 2.66647 6.89703 2.81942 6.66406 2.89795C6.43619 2.9747 6.20211 2.9625 5.98828 2.90576C5.90648 2.88428 5.87178 2.89295 5.86719 2.89404Z" fill="#111111"/>
</svg>
