<svg width="132" height="157" viewBox="0 0 132 157" fill="none" xmlns="http://www.w3.org/2000/svg">
<path d="M45.1814 0.926758C44.7944 0.838485 44.4262 0.939242 44.1072 1.15723C43.9232 1.28295 43.751 1.35604 43.5955 1.3916C43.3357 1.4511 43.0796 1.53992 42.8259 1.65332C42.798 1.66582 42.7853 1.66228 42.7791 1.66113C42.7677 1.65906 42.7307 1.64742 42.6658 1.59473C42.3407 1.33054 41.9358 1.20353 41.5095 1.34473C41.2344 1.43604 40.9753 1.58654 40.7244 1.77441C40.714 1.76469 40.6993 1.75509 40.6853 1.73926C40.4092 1.4257 40.0391 1.17543 39.5877 1.21191C39.2628 1.23828 38.9566 1.35768 38.6736 1.54395L38.6189 1.57129C38.6175 1.57102 38.6119 1.56907 38.6072 1.56738C38.5978 1.56396 38.5807 1.55685 38.5564 1.54004C38.2255 1.30915 37.8355 1.21732 37.4353 1.34473C37.2859 1.392 37.1436 1.39903 37.0017 1.37207C36.5895 1.29386 36.2267 1.45591 35.9314 1.71191L35.9236 1.7041C35.7708 1.53259 35.5662 1.37313 35.3064 1.32129C35.0286 1.26594 34.7763 1.35216 34.5759 1.49707C34.3988 1.62526 34.2428 1.6891 34.1072 1.71191C34.051 1.7213 33.96 1.71565 33.8142 1.60254C33.5678 1.41136 33.3187 1.24532 33.0642 1.11035C32.7435 0.940286 32.3927 0.880987 32.0369 0.961914C31.8643 1.0011 31.6946 1.01227 31.5252 0.993164C31.2925 0.966864 31.0586 0.944592 30.8259 0.926758C30.4395 0.897395 30.0913 1.04632 29.7947 1.28613C29.614 1.43217 29.4561 1.50607 29.322 1.53613C29.2374 1.5549 29.1389 1.54554 29.0056 1.46582C28.7564 1.31676 28.5038 1.19212 28.2478 1.09473C27.9531 0.98265 27.6468 0.941272 27.3377 0.973633C26.9257 1.01704 26.5912 1.27654 26.3259 1.59473C26.239 1.69895 26.1703 1.75012 26.1267 1.77441C26.0884 1.79568 26.0722 1.79396 26.072 1.79395C25.9903 1.7862 25.8625 1.74077 25.6892 1.5791C25.5045 1.4066 25.2409 1.26612 24.9236 1.32129C24.6694 1.36595 24.4837 1.52891 24.3416 1.69238C24.1941 1.5157 23.9731 1.33441 23.6697 1.32129C23.3709 1.30855 23.1454 1.46506 22.99 1.62988C22.8553 1.45599 22.6865 1.28718 22.4627 1.2041C22.1853 1.10131 21.9097 1.1529 21.6814 1.29785C21.5785 1.36326 21.5224 1.35831 21.4627 1.33301C21.2589 1.24678 21.0397 1.22016 20.8181 1.27051C20.6032 1.31949 20.4172 1.43277 20.2595 1.57129C20.0893 1.72092 19.9623 1.76446 19.8767 1.77051C19.8031 1.77542 19.6933 1.75232 19.5369 1.62988C19.3619 1.49306 19.147 1.39328 18.9002 1.3877C18.6518 1.38221 18.4319 1.47354 18.2517 1.60645C18.1261 1.69919 18.0624 1.69081 18.0173 1.67676C17.8676 1.63005 17.6974 1.53784 17.5095 1.37988C17.3338 1.2324 17.1092 1.12095 16.8455 1.12207C16.5826 1.12348 16.3598 1.23586 16.1853 1.38379C16.1197 1.43946 16.0819 1.45206 16.072 1.4541C16.0676 1.45499 16.063 1.45444 16.0603 1.4541C16.0564 1.45346 16.0463 1.45234 16.033 1.44629C15.798 1.33991 15.5616 1.23989 15.3259 1.14941L15.1462 1.09863C14.963 1.06723 14.7771 1.09102 14.6033 1.16895C14.4184 1.2518 14.2717 1.39313 14.1423 1.54395C13.9911 1.35972 13.7468 1.15526 13.4041 1.18457C13.0511 1.21569 12.8217 1.47902 12.6892 1.68066C12.6765 1.70005 12.6649 1.71696 12.6541 1.73145C12.434 1.55479 12.2121 1.39999 11.9822 1.27832C11.777 1.16984 11.5429 1.1255 11.3025 1.17676C11.0727 1.22615 10.8814 1.35482 10.7244 1.50488C10.5618 1.66025 10.4712 1.6605 10.4392 1.65723C10.3841 1.65145 10.2626 1.61034 10.0798 1.40723C9.9262 1.23673 9.72038 1.08061 9.45875 1.03223C9.1798 0.980817 8.92985 1.06951 8.73218 1.21582C8.62196 1.29756 8.57797 1.28205 8.54078 1.2666C8.22194 1.13405 7.88762 1.10382 7.5525 1.18457C7.29533 1.24667 7.03889 1.33105 6.78687 1.44238C6.69204 1.4843 6.61421 1.48621 6.51734 1.44238C6.10327 1.2536 5.68416 1.32824 5.33375 1.58301C5.27606 1.62496 5.24605 1.6293 5.24 1.62988C5.23606 1.63028 5.22066 1.63294 5.18531 1.61426C5.00017 1.51533 4.79108 1.46218 4.57203 1.47754C4.35569 1.49304 4.16079 1.57331 3.99 1.68848C3.85455 1.77984 3.76341 1.78498 3.69312 1.77051C3.58118 1.74693 3.43324 1.67419 3.25172 1.50488C3.06609 1.33153 2.79749 1.19271 2.47828 1.25098C2.18945 1.30389 1.9826 1.50109 1.83765 1.68848C1.83136 1.68571 1.82259 1.68504 1.81422 1.68066C1.77207 1.65863 1.7138 1.61795 1.63844 1.55176L1.49781 1.42676H1.20875V2.04004L0.978279 2.30176C1.20302 2.49919 1.47776 2.67283 1.79078 2.69629C2.14835 2.72268 2.43535 2.54642 2.62672 2.29785L2.63453 2.29004C2.88976 2.5141 3.17138 2.68078 3.48609 2.74707C3.86889 2.82766 4.23165 2.73039 4.54859 2.5166C4.60175 2.48078 4.63161 2.47458 4.64234 2.47363C4.64996 2.4731 4.67112 2.47488 4.71265 2.49707C4.90121 2.59771 5.11418 2.64753 5.33765 2.62598C5.55783 2.60452 5.75489 2.51428 5.92359 2.3916C5.98412 2.34784 6.02214 2.33891 6.03687 2.33691C6.04833 2.33549 6.0658 2.33741 6.09937 2.35254C6.45454 2.51447 6.83176 2.51774 7.18922 2.36035C7.39024 2.2715 7.59101 2.20062 7.78687 2.15332C7.90443 2.12518 8.02417 2.13285 8.15797 2.18848C8.56317 2.35667 8.96134 2.27548 9.29859 2.03613C9.30961 2.04611 9.32239 2.06213 9.33765 2.0791C9.60758 2.37873 9.9398 2.61259 10.3377 2.65332C10.759 2.69644 11.125 2.50547 11.4158 2.22754C11.4781 2.16812 11.5107 2.15803 11.5134 2.15723V2.16113C11.7042 2.2621 11.9038 2.39634 12.1072 2.56738C12.3177 2.7445 12.6113 2.85217 12.9314 2.74316C13.1727 2.66031 13.3435 2.47373 13.4744 2.29004C13.6202 2.45557 13.8257 2.62369 14.1111 2.63379C14.4637 2.64617 14.7112 2.41945 14.8611 2.22754C14.9277 2.14226 14.9786 2.1096 15.0017 2.09473C15.2084 2.17478 15.4156 2.2626 15.6228 2.35645C15.8233 2.44712 16.0439 2.47884 16.2673 2.43457C16.4842 2.39128 16.674 2.28114 16.8337 2.14551C16.8405 2.13983 16.8482 2.13752 16.8533 2.13379C16.8572 2.13672 16.8603 2.14159 16.865 2.14551C17.1303 2.36853 17.4169 2.53915 17.7205 2.63379C18.1283 2.76054 18.518 2.65287 18.8455 2.41113C18.8612 2.39953 18.8737 2.39498 18.8806 2.3916C18.8891 2.39601 18.9018 2.40495 18.9197 2.41895C19.2166 2.65124 19.5634 2.79194 19.9431 2.7666C20.3103 2.74176 20.6377 2.56914 20.9197 2.32129C20.988 2.26142 21.0293 2.24968 21.0408 2.24707L21.0486 2.24316C21.0509 2.24339 21.0593 2.24578 21.072 2.25098C21.4422 2.40768 21.8153 2.36343 22.1502 2.17285C22.1702 2.19304 22.1944 2.22526 22.2244 2.2666C22.366 2.46153 22.5959 2.69085 22.9314 2.71582C23.2448 2.73893 23.477 2.57001 23.6345 2.39941C23.783 2.57924 24.0071 2.77323 24.322 2.77832C24.6693 2.78328 24.9153 2.55959 25.0642 2.36816L25.072 2.36035C25.3365 2.5911 25.6383 2.75866 25.9822 2.79004C26.4474 2.83198 26.8203 2.56017 27.0916 2.23535C27.2773 2.0126 27.3964 1.97095 27.4392 1.96582C27.5829 1.95067 27.7342 1.97208 27.8923 2.03223C28.0883 2.10686 28.2874 2.20411 28.49 2.3252C28.81 2.5166 29.1682 2.59448 29.5369 2.5127C29.8557 2.44194 30.1518 2.2832 30.4236 2.06348C30.5801 1.93693 30.6852 1.91775 30.7517 1.92285C30.9717 1.93973 31.1918 1.96048 31.4119 1.98535C31.6954 2.01741 31.9792 2.00223 32.2595 1.93848C32.357 1.91631 32.4628 1.92675 32.5955 1.99707C32.793 2.10197 32.9953 2.23213 33.2009 2.3916C33.5085 2.63034 33.8741 2.76264 34.2712 2.69629C34.5774 2.64505 34.8632 2.51343 35.1306 2.3252C35.1428 2.33602 35.1561 2.35245 35.1736 2.37207C35.3297 2.54726 35.5516 2.71305 35.8377 2.74316C36.1369 2.7742 36.3839 2.6419 36.5642 2.47754C36.7147 2.34033 36.7894 2.35182 36.8142 2.35645C37.1249 2.41548 37.4369 2.39424 37.74 2.29785C37.7932 2.28093 37.8598 2.27495 37.9822 2.36035C38.1586 2.4834 38.3674 2.56673 38.5994 2.57129C38.8321 2.57573 39.0437 2.49882 39.2244 2.37988C39.3941 2.26826 39.5418 2.21834 39.6697 2.20801C39.6793 2.20741 39.7638 2.20953 39.9314 2.39941C40.0842 2.57294 40.294 2.73732 40.5603 2.78613C40.8446 2.83763 41.0987 2.7416 41.2947 2.59082C41.4851 2.44445 41.6621 2.34821 41.8259 2.29395C41.8531 2.28495 41.9055 2.26853 42.033 2.37207C42.1944 2.5033 42.3841 2.60616 42.5994 2.64551C42.8196 2.68561 43.0344 2.65193 43.2322 2.56348C43.4305 2.47478 43.6258 2.40831 43.8181 2.36426C44.1155 2.29627 44.4007 2.16516 44.6697 1.98145C44.804 1.88964 44.8925 1.8843 44.9587 1.89941C45.1772 1.94926 45.3962 2.00632 45.615 2.06738C45.756 2.10685 45.918 2.19511 46.1033 2.35254C46.3039 2.52298 46.5824 2.63482 46.8962 2.55176C47.1731 2.47846 47.3729 2.27684 47.5134 2.08301C47.5204 2.07339 47.5306 2.06749 47.5369 2.05957C47.6821 2.17507 47.8475 2.27578 48.0447 2.30957C48.2868 2.35084 48.5172 2.29399 48.7166 2.18066C48.7989 2.13415 48.8476 2.13542 48.9197 2.17285C49.2871 2.36336 49.6716 2.34825 50.0252 2.15723C50.0465 2.17794 50.0702 2.21352 50.1033 2.25879C50.2451 2.45297 50.4735 2.67798 50.8025 2.70801C51.1531 2.7392 51.4135 2.53364 51.572 2.34473C51.6066 2.30355 51.6346 2.27805 51.6541 2.2627C51.8733 2.38901 52.0909 2.51473 52.3103 2.63379C52.516 2.74542 52.7506 2.79201 52.9939 2.73926C53.2269 2.68832 53.4232 2.55678 53.5798 2.40332C53.5972 2.38635 53.6122 2.37603 53.6228 2.36816C53.8795 2.55632 54.1436 2.70617 54.4197 2.80566C54.8969 2.9776 55.3204 2.77335 55.6267 2.45801C55.8053 2.27383 55.9292 2.2333 55.9939 2.22754C56.1136 2.21705 56.2444 2.2386 56.3962 2.31738C56.6865 2.4685 56.9953 2.55149 57.3142 2.54785C57.5949 2.54463 57.8734 2.49733 58.1462 2.40723C58.3414 2.34281 58.5338 2.30002 58.7244 2.27832C59.0172 2.24506 59.3021 2.15302 59.5759 2.0127C59.7346 1.93132 59.8762 1.90171 60.0056 1.90723C60.1742 1.91465 60.3495 1.95096 60.5291 2.02051C60.7249 2.09639 60.9237 2.1969 61.1267 2.32129C61.3301 2.44592 61.5707 2.50499 61.8259 2.4541C62.0686 2.40562 62.267 2.26881 62.4236 2.11035C62.5001 2.03286 62.5506 2.01073 62.5681 2.00488L62.5759 2.00098C62.5772 2.00119 62.5833 2.00338 62.5877 2.00488C62.7748 2.06938 62.968 2.16004 63.1658 2.28223C63.5367 2.51154 63.9546 2.53712 64.3455 2.3291C64.4923 2.25127 64.6166 2.23321 64.7283 2.24707C64.8915 2.26752 65.0634 2.32003 65.2439 2.41113C65.4492 2.51444 65.6798 2.55258 65.9158 2.50098C66.1127 2.45789 66.2754 2.34969 66.4197 2.22754C66.4235 2.23234 66.4273 2.23771 66.4314 2.24316C66.5752 2.43252 66.78 2.63201 67.0642 2.69238C67.3796 2.75928 67.6499 2.629 67.8416 2.45801C68.023 2.29625 68.1745 2.22251 68.2947 2.19629C68.5503 2.14063 68.805 2.0633 69.0564 1.96191C69.0818 1.95173 69.0934 1.95195 69.1033 1.9541C69.1193 1.95771 69.1614 1.9723 69.2283 2.02832C69.5045 2.25952 69.8123 2.42345 70.1502 2.47754C70.5049 2.5342 70.8467 2.45672 71.158 2.27832C71.2705 2.21383 71.3472 2.21221 71.4236 2.23926C71.7406 2.35123 72.0673 2.36961 72.3923 2.28613C72.5196 2.25336 72.6474 2.25745 72.783 2.30566C73.1137 2.42297 73.4521 2.42079 73.783 2.30566C73.8003 2.31353 73.8495 2.34687 73.9275 2.43848C74.2044 2.76324 74.5935 3.02628 75.072 2.94629C75.2854 2.91066 75.4997 2.88663 75.7126 2.86816C76.1196 2.83262 76.4554 2.58863 76.7244 2.28223C76.9157 2.06424 77.069 1.96879 77.1775 1.93457C77.1908 1.93039 77.1984 1.92998 77.2126 1.93457C77.2346 1.94174 77.2854 1.96681 77.3611 2.04004C77.6341 2.30409 77.9488 2.50016 78.3064 2.55957C78.584 2.60565 78.8643 2.60815 79.1423 2.56738C79.353 2.53653 79.5649 2.51537 79.7751 2.50488C80.0849 2.48912 80.3762 2.38379 80.6462 2.21582C80.6634 2.23325 80.6844 2.25779 80.7087 2.29004C80.8504 2.47742 81.0388 2.6569 81.283 2.74316C81.5554 2.83918 81.8264 2.79286 82.0525 2.65332C82.3125 2.49279 82.5671 2.29351 82.8142 2.05957C82.9775 1.90521 83.0711 1.8965 83.1111 1.89941C83.1204 1.90371 83.1379 1.91503 83.1658 1.93848C83.2252 1.98849 83.3072 2.0795 83.4041 2.23535C83.536 2.44773 83.7016 2.64736 83.9119 2.77441C84.1457 2.91543 84.4213 2.95684 84.6931 2.84863C84.8985 2.76636 85.104 2.69942 85.3064 2.64941C85.4788 2.60692 85.6499 2.59322 85.8181 2.61035C86.0204 2.63096 86.2235 2.66873 86.4275 2.71973C86.8614 2.82798 87.2517 2.66285 87.5603 2.3877C87.7396 2.22759 87.8865 2.16177 87.9978 2.1416C88.1482 2.11435 88.2995 2.12144 88.4548 2.16504C88.6273 2.21361 88.8074 2.29723 88.9978 2.41895C89.2807 2.59985 89.5862 2.71307 89.908 2.73926C90.2192 2.76456 90.5245 2.71165 90.8181 2.59082C90.9002 2.55703 90.9737 2.5562 91.0759 2.61035C91.3841 2.77332 91.7168 2.84333 92.0603 2.79395C92.2882 2.76118 92.5161 2.72765 92.7439 2.69238C93.085 2.63957 93.3785 2.44947 93.6306 2.2002C93.7678 2.39588 93.9662 2.61348 94.2556 2.68066C94.5945 2.75912 94.8751 2.60209 95.0603 2.41895C95.0714 2.40798 95.0835 2.40221 95.0916 2.39551C95.3703 2.61397 95.6802 2.76203 96.0212 2.79395C96.4349 2.83227 96.796 2.65066 97.0876 2.37988C97.2792 2.20187 97.4521 2.09294 97.6033 2.03613C97.7643 1.97571 97.9169 1.95715 98.0642 1.96973C98.144 1.97664 98.2724 2.02038 98.447 2.18457C98.7119 2.43365 99.0011 2.62437 99.3181 2.72363C99.5829 2.80625 99.8524 2.85464 100.123 2.86816C100.595 2.89164 100.962 2.59081 101.224 2.25098C101.312 2.1383 101.373 2.0969 101.4 2.08301C101.51 2.11472 101.657 2.19381 101.834 2.37207C101.992 2.53139 102.194 2.67276 102.443 2.71582C102.705 2.76091 102.947 2.68752 103.146 2.55566C103.265 2.47757 103.333 2.48135 103.392 2.50098C103.884 2.66318 104.305 2.42113 104.599 2.09473C104.849 2.328 105.11 2.51671 105.392 2.6377C105.661 2.75279 105.936 2.83085 106.217 2.86035C106.484 2.88841 106.751 2.88169 107.017 2.84473C107.36 2.79719 107.657 2.61587 107.916 2.37207C108.064 2.56756 108.327 2.81721 108.709 2.77051C109 2.73423 109.203 2.53893 109.338 2.35645C109.461 2.52564 109.61 2.6925 109.818 2.77832C110.123 2.90387 110.422 2.8325 110.65 2.66113C110.763 2.57656 110.806 2.59218 110.842 2.60645C111.071 2.69799 111.317 2.69907 111.549 2.61035C111.736 2.53826 111.888 2.40818 112.021 2.2666C112.17 2.45209 112.406 2.66015 112.74 2.65332C113.089 2.64568 113.327 2.41028 113.47 2.21582C113.667 1.94802 113.79 1.90758 113.818 1.90332C113.902 1.89151 114.009 1.90496 114.154 2.00098C114.433 2.18552 114.732 2.30712 115.049 2.34473C115.144 2.35599 115.28 2.41119 115.455 2.56738C115.74 2.82212 116.08 2.995 116.463 3.00098C116.922 3.00735 117.278 2.71541 117.541 2.37988C117.736 2.1301 117.886 2.04541 117.97 2.02051C118.032 2.00262 118.108 1.99965 118.232 2.08301C118.403 2.19705 118.599 2.27457 118.814 2.29004C119.031 2.30537 119.235 2.25414 119.42 2.15723C119.459 2.13657 119.479 2.13714 119.486 2.1377C119.495 2.13846 119.527 2.14508 119.584 2.18457C119.83 2.35613 120.08 2.50186 120.334 2.62207C120.53 2.71525 120.747 2.75264 120.97 2.71582C121.188 2.67983 121.378 2.58058 121.541 2.4502C121.708 2.3159 121.837 2.27455 121.931 2.27051C122.086 2.26398 122.244 2.28973 122.408 2.35254C122.66 2.44893 122.915 2.52221 123.17 2.56738C123.441 2.61526 123.719 2.62237 124.002 2.59082C124.179 2.57105 124.347 2.58203 124.506 2.62598C124.591 2.64971 124.684 2.70734 124.779 2.85254C124.904 3.04368 125.082 3.20247 125.314 3.28223C125.541 3.35948 125.773 3.34534 125.986 3.29004C126.074 3.2672 126.11 3.27798 126.111 3.27832C126.113 3.28045 126.115 3.28485 126.119 3.29004C126.236 3.45101 126.333 3.63407 126.408 3.84082C126.496 4.08224 126.668 4.28053 126.92 4.3877C127.151 4.48588 127.402 4.48758 127.631 4.4502C127.763 4.42864 127.839 4.43672 127.877 4.44629C127.894 4.4507 127.903 4.45333 127.904 4.4541L127.908 4.45801C128.066 4.66281 128.234 4.8595 128.416 5.04395C128.567 5.19751 128.709 5.3622 128.838 5.53613C128.91 5.63524 128.956 5.75923 128.959 5.93066C128.962 6.14028 128.928 6.36325 128.857 6.59863C128.753 6.94381 128.729 7.30062 128.849 7.63379C128.932 7.86324 129.036 8.08734 129.162 8.30566C129.212 8.39181 129.226 8.47824 129.205 8.58691C129.13 8.96278 129.224 9.32001 129.443 9.62598C129.581 9.81927 129.722 10.0204 129.861 10.2314C129.849 10.2462 129.832 10.2665 129.806 10.29C129.628 10.4512 129.453 10.6869 129.451 10.9971C129.449 11.2992 129.615 11.5305 129.787 11.6924C129.637 11.8457 129.504 12.0369 129.463 12.2744C129.417 12.5393 129.492 12.7829 129.627 12.9814C129.767 13.1879 129.894 13.3915 130.002 13.5947C129.991 13.6117 129.969 13.6435 129.92 13.6885C129.735 13.8565 129.553 14.1208 129.595 14.4619C129.626 14.7059 129.774 14.8821 129.924 15.0205C129.718 15.1462 129.512 15.3059 129.396 15.5283C129.329 15.6576 129.29 15.8088 129.302 15.9697C129.315 16.1286 129.378 16.2663 129.455 16.3799C129.61 16.6083 129.768 16.839 129.927 17.0674L129.951 17.1143C129.948 17.1219 129.942 17.1437 129.924 17.1689C129.691 17.4919 129.584 17.8708 129.693 18.2705C129.704 18.3092 129.716 18.3791 129.611 18.5127C129.47 18.6927 129.364 18.917 129.373 19.1768C129.381 19.434 129.496 19.6529 129.642 19.8252L129.65 19.8291C129.647 19.8336 129.643 19.8392 129.638 19.8447C129.472 20.0303 129.342 20.2891 129.388 20.5947C129.432 20.8791 129.61 21.0925 129.791 21.2432H129.795C129.641 21.4213 129.52 21.6622 129.564 21.9541C129.603 22.2116 129.762 22.3998 129.924 22.5439C129.607 22.7934 129.345 23.0963 129.26 23.4697C129.147 23.964 129.424 24.3638 129.756 24.6416C129.986 24.8347 130.077 24.9881 130.107 25.0869C130.168 25.2851 130.21 25.482 130.232 25.6768C130.251 25.8476 130.242 26.0188 130.205 26.1924C130.155 26.4194 130.105 26.649 130.056 26.876C130.026 27.0155 129.952 27.1758 129.814 27.3564C129.594 27.6452 129.451 27.9721 129.443 28.3291C129.439 28.4978 129.406 28.67 129.342 28.8486C129.246 29.1107 129.283 29.3774 129.412 29.6064C129.529 29.8146 129.716 29.9799 129.916 30.1143C129.978 30.156 130.025 30.1885 130.052 30.2158C129.945 30.429 129.843 30.6427 129.748 30.8564C129.59 31.2098 129.587 31.5827 129.74 31.9385C129.753 31.9681 129.75 31.9832 129.748 31.9932C129.745 32.0084 129.735 32.0475 129.685 32.1103C129.461 32.3962 129.313 32.7207 129.295 33.0752C129.282 33.3183 129.279 33.5626 129.291 33.8057C129.304 34.0797 129.358 34.351 129.447 34.6182C129.497 34.7673 129.504 34.9077 129.478 35.0478C129.404 35.4431 129.53 35.8111 129.763 36.1221L129.771 36.126C129.765 36.1354 129.754 36.1493 129.74 36.165C129.489 36.4421 129.309 36.7604 129.263 37.1182C129.21 37.5475 129.417 37.9061 129.701 38.1885C129.407 38.4674 129.186 38.8292 129.224 39.2627C129.245 39.494 129.267 39.7267 129.295 39.958C129.317 40.1396 129.315 40.3227 129.287 40.5049C129.217 40.9648 129.457 41.3469 129.767 41.6299C129.828 41.6856 129.856 41.7219 129.865 41.7393C129.712 42.0752 129.686 42.4313 129.806 42.7822C129.817 42.8123 129.835 42.8642 129.736 42.9893C129.492 43.2967 129.354 43.6655 129.424 44.0674C129.482 44.3987 129.649 44.697 129.877 44.9697C129.871 44.9757 129.864 44.9818 129.857 44.9893C129.686 45.1631 129.535 45.4108 129.56 45.7197C129.584 46.0165 129.761 46.2399 129.939 46.3955C130.033 46.477 130.068 46.5341 130.08 46.5596L130.084 46.5713C130.056 46.6754 129.971 46.8246 129.767 47.0127C129.599 47.1681 129.444 47.3756 129.4 47.6377C129.354 47.9152 129.446 48.1648 129.592 48.3603C129.696 48.5012 129.704 48.5896 129.693 48.6494C129.627 49.0141 129.716 49.3616 129.908 49.6728L129.635 50.001C129.573 50.0973 129.526 50.2045 129.498 50.3213C129.438 50.5688 129.481 50.811 129.595 51.0205C129.733 51.2714 129.907 51.5144 130.107 51.7549C130.102 51.7606 130.095 51.7676 130.088 51.7744C129.809 52.0343 129.59 52.3207 129.467 52.6377C129.332 52.9837 129.335 53.3444 129.474 53.6885C129.537 53.8447 129.559 53.9905 129.545 54.1299C129.522 54.351 129.492 54.5727 129.463 54.7939C129.421 55.1057 129.462 55.4137 129.572 55.7119C129.679 55.9997 129.843 56.2758 130.056 56.5361C130.156 56.6578 130.139 56.7042 130.131 56.7275C130.069 56.8959 129.968 57.0781 129.818 57.2705C129.662 57.4708 129.562 57.7352 129.627 58.0283C129.687 58.2967 129.867 58.4977 130.049 58.6455C130.067 58.6606 130.08 58.6768 130.092 58.6885C129.95 58.8771 129.786 59.0715 129.592 59.2666C129.306 59.5526 129.099 59.9137 129.131 60.3369C129.157 60.6899 129.312 61.0106 129.541 61.2939C129.548 61.3027 129.552 61.3114 129.556 61.3174C129.552 61.3236 129.548 61.3321 129.541 61.3408C129.39 61.5228 129.276 61.7605 129.295 62.0361C129.314 62.3045 129.452 62.5234 129.611 62.6885C129.791 62.8752 129.92 63.0474 130.002 63.208C129.999 63.2113 129.997 63.2156 129.994 63.2197C129.976 63.2429 129.944 63.2745 129.896 63.3135C129.713 63.4644 129.524 63.6866 129.49 63.9853C129.455 64.3013 129.609 64.5558 129.783 64.7314C129.858 64.8075 129.884 64.8596 129.892 64.8838C129.898 64.9004 129.896 64.9075 129.892 64.9189C129.833 65.1224 129.758 65.3294 129.666 65.5361C129.484 65.9421 129.551 66.3529 129.795 66.7041C129.808 66.7236 129.816 66.7367 129.818 66.7432C129.819 66.7304 129.825 66.7472 129.787 66.7978C129.658 66.9673 129.561 67.1678 129.541 67.3955C129.521 67.627 129.583 67.844 129.693 68.0322C129.741 68.1139 129.738 68.1583 129.701 68.2275C129.577 68.4626 129.462 68.6985 129.357 68.9346C129.246 69.184 129.252 69.4526 129.369 69.6963C129.475 69.9166 129.656 70.09 129.849 70.2275C129.874 70.2454 129.896 70.2604 129.912 70.2744C129.75 70.4971 129.609 70.7217 129.49 70.9502C129.366 71.1879 129.345 71.4559 129.451 71.7119C129.53 71.902 129.672 72.0497 129.822 72.1768C129.637 72.313 129.437 72.5107 129.388 72.7978C129.33 73.145 129.517 73.408 129.701 73.5752C129.537 73.7432 129.39 73.9808 129.416 74.2822C129.443 74.5912 129.64 74.8193 129.826 74.9697C130.059 75.1595 130.102 75.282 130.107 75.3252C130.133 75.5232 130.139 75.7215 130.131 75.9189C130.127 76.0066 130.09 76.1312 129.951 76.2978C129.751 76.5378 129.568 76.7805 129.408 77.0244C129.193 77.3526 129.109 77.7301 129.22 78.1182C129.323 78.4734 129.567 78.7785 129.873 79.04L129.97 79.1377C129.828 79.4258 129.752 79.7282 129.767 80.0439C129.781 80.3304 129.844 80.6133 129.955 80.8877C129.964 80.9115 129.965 80.9218 129.963 80.9307C129.959 80.9458 129.943 80.9876 129.885 81.0557C129.642 81.3399 129.48 81.6687 129.463 82.0361C129.454 82.2192 129.422 82.4063 129.365 82.5947C129.283 82.8654 129.337 83.1264 129.474 83.3447C129.601 83.5458 129.791 83.708 129.998 83.8408C130.138 83.9306 130.203 83.9968 130.228 84.0322C130.177 84.2757 130.146 84.5212 130.138 84.7666L130.135 84.7783C130.131 84.7885 130.121 84.8076 130.103 84.833C130.065 84.8873 129.992 84.9637 129.865 85.0557C129.675 85.1933 129.498 85.3639 129.392 85.5791C129.277 85.8155 129.26 86.0796 129.361 86.3291C129.457 86.5661 129.568 86.8003 129.685 87.0361C129.68 87.0479 129.663 87.0836 129.603 87.1416C129.431 87.3104 129.275 87.554 129.287 87.8603C129.299 88.1594 129.467 88.3881 129.642 88.5478C129.848 88.7348 129.947 88.8899 129.986 89.0049C129.975 89.0266 129.939 89.079 129.845 89.1572C129.655 89.3163 129.446 89.5781 129.486 89.9346C129.523 90.2649 129.757 90.4909 129.955 90.6299C130.087 90.7232 130.164 90.8011 130.205 90.8564C130.231 90.893 130.239 90.9129 130.24 90.9189C130.24 90.9074 130.245 90.9192 130.217 90.9619C130.184 91.0102 130.116 91.0816 129.99 91.1728C129.797 91.312 129.608 91.4955 129.513 91.7353C129.407 92.0054 129.445 92.2827 129.584 92.5166C129.713 92.7352 129.833 92.9549 129.947 93.1728C129.956 93.1894 129.961 93.1989 129.963 93.2041C129.963 93.2082 129.963 93.2134 129.963 93.2158C129.961 93.2233 129.952 93.2533 129.908 93.3096C129.693 93.5833 129.541 93.8825 129.478 94.2041C129.415 94.5322 129.452 94.8583 129.58 95.1689C129.697 95.4532 129.871 95.7271 130.092 95.9853C130.152 96.0558 130.172 96.1008 130.177 96.1221C130.182 96.138 130.182 96.1531 130.174 96.1768C130.114 96.3486 130.015 96.5309 129.873 96.7236C129.731 96.9165 129.643 97.1599 129.681 97.4307C129.712 97.643 129.822 97.8129 129.947 97.958L129.939 97.9658C129.739 98.1023 129.5 98.321 129.451 98.6455C129.401 98.9761 129.576 99.2255 129.752 99.3916C129.453 99.653 129.215 99.9809 129.181 100.38C129.156 100.691 129.209 100.996 129.33 101.29C129.46 101.606 129.685 101.891 129.97 102.149C130.169 102.329 130.202 102.444 130.205 102.489C130.218 102.706 130.224 102.925 130.224 103.142C130.224 103.178 130.206 103.28 130.021 103.454C129.858 103.608 129.713 103.808 129.658 104.052C129.6 104.309 129.657 104.553 129.783 104.759C129.855 104.876 129.856 104.954 129.834 105.024C129.737 105.322 129.708 105.628 129.756 105.935C129.758 105.949 129.771 106.027 129.611 106.188C129.329 106.473 129.126 106.828 129.146 107.243C129.166 107.64 129.379 107.978 129.662 108.255C129.843 108.433 129.971 108.604 130.06 108.759C130.037 108.783 130.003 108.818 129.951 108.856C129.759 108.995 129.57 109.179 129.478 109.423C129.375 109.7 129.423 109.979 129.568 110.208C129.664 110.359 129.686 110.48 129.677 110.579C129.656 110.838 129.661 111.098 129.689 111.356C129.714 111.581 129.74 111.807 129.763 112.032C129.785 112.242 129.793 112.452 129.795 112.661C129.797 112.995 129.904 113.312 130.084 113.603L130.095 113.622C130.093 113.63 130.084 113.654 130.049 113.696C129.853 113.927 129.662 114.157 129.478 114.388C129.31 114.599 129.216 114.885 129.314 115.192C129.4 115.459 129.605 115.652 129.802 115.79C129.863 115.832 129.906 115.869 129.931 115.896H129.935C129.799 116.193 129.749 116.509 129.81 116.833C129.854 117.065 129.903 117.297 129.955 117.528C130.007 117.759 130.065 117.993 130.123 118.224C130.154 118.347 130.146 118.468 130.095 118.603C130.033 118.766 129.929 118.945 129.767 119.138C129.619 119.315 129.504 119.543 129.51 119.81C129.515 120.075 129.636 120.297 129.787 120.47C129.935 120.638 129.971 120.759 129.974 120.837C129.98 121.009 129.959 121.186 129.908 121.364C129.8 121.746 129.897 122.104 130.107 122.415C130.093 122.429 130.073 122.447 130.049 122.466C129.717 122.724 129.441 123.047 129.361 123.442C129.28 123.844 129.42 124.208 129.662 124.513L129.427 124.786C129.244 125.051 129.151 125.373 129.26 125.728C129.356 126.044 129.575 126.31 129.842 126.548C129.644 126.68 129.42 126.876 129.353 127.169C129.27 127.535 129.465 127.821 129.658 127.993C129.674 128.008 129.687 128.021 129.697 128.032C129.566 128.22 129.484 128.453 129.521 128.712C129.556 128.956 129.694 129.147 129.845 129.302C129.673 129.464 129.51 129.699 129.51 130.001C129.51 130.309 129.681 130.546 129.857 130.708C130.053 130.888 130.081 131.002 130.084 131.048C130.084 131.052 130.084 131.072 130.06 131.114C130.033 131.161 129.98 131.231 129.877 131.317C129.702 131.464 129.539 131.654 129.467 131.896C129.388 132.158 129.435 132.415 129.564 132.634C129.572 132.647 129.574 132.657 129.576 132.661L129.529 132.739C129.382 132.916 129.271 133.143 129.275 133.407C129.279 133.67 129.396 133.894 129.545 134.067C129.691 134.238 129.736 134.369 129.744 134.462C129.75 134.534 129.733 134.641 129.615 134.794C129.485 134.962 129.385 135.161 129.361 135.388C129.337 135.618 129.395 135.834 129.502 136.024C129.602 136.202 129.654 136.37 129.674 136.524C129.712 136.824 129.839 137.1 130.013 137.36C129.997 137.376 129.976 137.397 129.947 137.419C129.752 137.565 129.506 137.821 129.529 138.192C129.552 138.544 129.806 138.775 130.006 138.911C130.119 138.988 130.168 139.05 130.189 139.079C130.123 139.288 130.054 139.496 129.986 139.704C129.909 139.941 129.839 140.181 129.779 140.419C129.712 140.687 129.683 140.959 129.689 141.231C129.697 141.592 129.851 141.914 130.08 142.196C130.074 142.203 130.069 142.212 130.06 142.22C129.774 142.496 129.559 142.838 129.541 143.239C129.527 143.556 129.596 143.865 129.736 144.157C129.761 144.208 129.771 144.247 129.709 144.341C129.468 144.701 129.415 145.119 129.611 145.52C129.655 145.611 129.657 145.678 129.615 145.767C129.428 146.159 129.467 146.567 129.693 146.927C129.815 147.122 129.946 147.314 130.076 147.509C130.047 147.531 130.012 147.561 129.963 147.591C129.753 147.716 129.467 147.932 129.412 148.282C129.349 148.681 129.616 148.957 129.814 149.103C130.083 149.3 130.116 149.42 130.119 149.442C130.118 149.433 130.122 149.437 130.103 149.47C130.08 149.51 130.028 149.577 129.916 149.665C129.57 149.937 129.262 150.353 129.404 150.872C129.478 151.141 129.589 151.403 129.732 151.661C129.843 151.86 129.927 152.057 129.986 152.247C130.019 152.354 130.015 152.458 129.963 152.579C129.865 152.803 129.768 153.031 129.666 153.255C129.488 153.647 129.533 154.048 129.756 154.403C129.747 154.417 129.731 154.439 129.701 154.47C129.526 154.648 129.373 154.91 129.42 155.231C129.451 155.449 129.577 155.612 129.709 155.747V156.001H129.974L129.998 156.024C129.996 156.021 129.995 156.012 129.99 156.001H130.197L130.158 156.395L130.345 156.419L130.474 156.431L130.592 156.38C130.71 156.33 130.884 156.211 130.939 155.978C130.988 155.772 130.911 155.604 130.865 155.524C130.772 155.364 130.613 155.222 130.467 155.106L130.463 155.103C130.594 154.954 130.71 154.781 130.748 154.567C130.793 154.312 130.729 154.072 130.603 153.872C130.543 153.775 130.549 153.725 130.576 153.665C130.68 153.436 130.781 153.206 130.881 152.978C131.024 152.646 131.051 152.296 130.943 151.95C130.862 151.688 130.748 151.43 130.607 151.177C130.501 150.985 130.423 150.799 130.373 150.618C130.387 150.592 130.43 150.536 130.533 150.454C130.871 150.188 131.172 149.805 131.111 149.317C131.064 148.942 130.823 148.644 130.533 148.403C130.73 148.278 130.924 148.121 131.033 147.903C131.178 147.614 131.142 147.308 130.974 147.06L130.541 146.395C130.483 146.303 130.489 146.256 130.517 146.196C130.691 145.831 130.686 145.442 130.51 145.079C130.491 145.04 130.489 145.018 130.49 145.005C130.491 144.99 130.499 144.956 130.537 144.899C130.777 144.541 130.831 144.125 130.638 143.724C130.561 143.563 130.531 143.418 130.537 143.282C130.539 143.23 130.569 143.115 130.752 142.938C130.918 142.778 131.067 142.562 131.095 142.29C131.124 142.008 131.014 141.764 130.861 141.579C130.725 141.414 130.691 141.292 130.689 141.208C130.685 141.028 130.705 140.845 130.752 140.661C130.806 140.446 130.865 140.229 130.935 140.013C131.009 139.786 131.082 139.56 131.154 139.333C131.237 139.072 131.195 138.812 131.068 138.591C130.963 138.408 130.804 138.26 130.631 138.134C130.786 138.002 130.939 137.844 131.006 137.63C131.096 137.34 131.019 137.064 130.865 136.849L130.724 136.606C130.693 136.531 130.674 136.46 130.666 136.395C130.628 136.097 130.527 135.811 130.373 135.536C130.362 135.516 130.358 135.502 130.357 135.497V135.493C130.357 135.493 130.36 135.465 130.404 135.407C130.635 135.109 130.775 134.76 130.744 134.38C130.714 134.02 130.544 133.697 130.302 133.415C130.295 133.407 130.291 133.398 130.287 133.392C130.29 133.388 130.295 133.385 130.299 133.38C130.436 133.214 130.544 133.011 130.572 132.778C130.599 132.554 130.54 132.346 130.439 132.161C130.454 132.142 130.481 132.116 130.521 132.083C130.843 131.812 131.109 131.448 131.084 130.993C131.062 130.597 130.842 130.263 130.556 129.993C130.721 129.834 130.876 129.617 130.885 129.333C130.893 129.028 130.736 128.789 130.564 128.622C130.548 128.606 130.538 128.59 130.529 128.579C130.669 128.384 130.756 128.141 130.705 127.868C130.666 127.658 130.55 127.492 130.42 127.353C130.624 127.221 130.879 127.013 130.935 126.685C131 126.306 130.771 126.03 130.576 125.872C130.337 125.678 130.246 125.529 130.217 125.435V125.423C130.217 125.421 130.219 125.416 130.22 125.411C130.228 125.389 130.253 125.337 130.334 125.259C130.499 125.099 130.648 124.885 130.677 124.614C130.708 124.333 130.599 124.089 130.447 123.903C130.33 123.759 130.333 123.679 130.342 123.638C130.354 123.58 130.418 123.448 130.666 123.255C130.851 123.111 131.031 122.914 131.103 122.653C131.183 122.363 131.101 122.093 130.947 121.884L130.865 121.728C130.857 121.69 130.862 121.661 130.869 121.638C130.947 121.363 130.984 121.083 130.974 120.802C130.961 120.427 130.79 120.094 130.541 119.81C130.535 119.803 130.529 119.795 130.525 119.79L130.533 119.782C130.751 119.522 130.923 119.247 131.033 118.958C131.154 118.639 131.175 118.307 131.092 117.978C131.035 117.755 130.982 117.532 130.931 117.31C130.881 117.088 130.837 116.866 130.795 116.646C130.774 116.537 130.784 116.421 130.853 116.282C130.977 116.034 130.983 115.762 130.865 115.509C130.759 115.283 130.573 115.107 130.377 114.97C130.356 114.956 130.34 114.938 130.326 114.927C130.482 114.732 130.645 114.54 130.81 114.345C130.951 114.179 131.064 113.976 131.092 113.739C131.12 113.496 131.054 113.267 130.935 113.075C130.835 112.913 130.795 112.777 130.795 112.657C130.793 112.414 130.781 112.169 130.756 111.927C130.732 111.699 130.707 111.47 130.681 111.243C130.66 111.049 130.657 110.855 130.674 110.661C130.701 110.332 130.613 110.024 130.447 109.739C130.467 109.719 130.496 109.694 130.537 109.665C130.729 109.526 130.914 109.349 131.013 109.118C131.124 108.861 131.104 108.589 130.978 108.349L130.709 107.935C130.606 107.801 130.49 107.67 130.361 107.544C130.183 107.37 130.15 107.253 130.146 107.196C130.144 107.159 130.155 107.06 130.322 106.892C130.611 106.599 130.812 106.221 130.744 105.782C130.722 105.636 130.733 105.488 130.783 105.333C130.905 104.955 130.842 104.583 130.642 104.251C130.654 104.235 130.677 104.214 130.709 104.185C131.003 103.907 131.225 103.555 131.224 103.138C131.224 102.902 131.215 102.666 131.201 102.431C131.176 102.023 130.942 101.683 130.642 101.411C130.429 101.218 130.312 101.048 130.256 100.911C130.19 100.752 130.166 100.603 130.177 100.462C130.181 100.424 130.214 100.309 130.435 100.122C130.619 99.9665 130.811 99.7261 130.814 99.4033C130.816 99.1312 130.68 98.9213 130.529 98.7666C130.721 98.6301 130.93 98.4346 130.994 98.1494C131.071 97.8065 130.909 97.5267 130.724 97.3447C130.708 97.329 130.698 97.3123 130.689 97.3018C130.876 97.0459 131.023 96.781 131.119 96.5049C131.271 96.0684 131.129 95.6607 130.853 95.3369C130.687 95.1423 130.575 94.9587 130.506 94.79C130.447 94.6482 130.435 94.5198 130.459 94.3955C130.484 94.264 130.556 94.1099 130.697 93.9307C130.827 93.765 130.925 93.5675 130.955 93.3447C130.985 93.1177 130.935 92.9011 130.834 92.708C130.722 92.4941 130.603 92.2807 130.478 92.0674C130.5 92.0458 130.531 92.0177 130.576 91.9853C130.929 91.7299 131.259 91.3648 131.24 90.8799C131.222 90.429 130.908 90.091 130.564 89.8408C130.862 89.5601 131.089 89.1746 130.939 88.708L130.838 88.4619C130.717 88.2281 130.541 88.0152 130.33 87.8213C130.473 87.6737 130.598 87.4989 130.654 87.2861C130.717 87.0465 130.685 86.8107 130.58 86.5986C130.479 86.3955 130.389 86.1913 130.306 85.9893C130.311 85.9834 130.319 85.9772 130.326 85.9697C130.352 85.9415 130.393 85.9062 130.451 85.8643C130.803 85.6092 131.125 85.2579 131.138 84.7939C131.144 84.5995 131.169 84.4046 131.213 84.208C131.337 83.6431 130.913 83.2421 130.537 83.001C130.41 82.9195 130.354 82.8563 130.33 82.8252C130.4 82.5795 130.447 82.3332 130.459 82.083C130.463 81.9979 130.502 81.8727 130.646 81.7041C130.929 81.3731 131.062 80.9529 130.885 80.5127C130.813 80.3344 130.772 80.1633 130.763 79.9971C130.757 79.8678 130.788 79.7259 130.869 79.5674C130.982 79.3444 131.009 79.0932 130.927 78.8447C130.851 78.6134 130.693 78.4254 130.521 78.2783C130.299 78.0873 130.21 77.9387 130.181 77.8408C130.163 77.7762 130.163 77.6988 130.244 77.5752C130.381 77.366 130.539 77.1516 130.717 76.9385C130.954 76.6533 131.115 76.3268 131.131 75.9619C131.142 75.7066 131.132 75.451 131.099 75.1963C131.047 74.7937 130.787 74.4685 130.47 74.208C130.626 74.0437 130.765 73.8202 130.752 73.5361C130.74 73.2819 130.604 73.0891 130.459 72.9385C130.656 72.8021 130.903 72.5774 130.927 72.2353C130.954 71.8615 130.705 71.6036 130.51 71.458C130.459 71.4202 130.426 71.3881 130.404 71.3643C130.503 71.1795 130.621 70.9886 130.763 70.7978C130.924 70.582 131.006 70.3026 130.908 70.0049C130.822 69.7438 130.623 69.5502 130.427 69.4111C130.369 69.3694 130.328 69.3331 130.302 69.3057C130.299 69.302 130.297 69.2972 130.295 69.2939C130.385 69.0946 130.482 68.8925 130.588 68.6924C130.79 68.309 130.773 67.8993 130.556 67.5283C130.545 67.5086 130.542 67.4948 130.541 67.4893C130.54 67.4847 130.537 67.4816 130.537 67.4814C130.537 67.4793 130.541 67.4747 130.545 67.4658C130.55 67.4529 130.562 67.4317 130.584 67.4033C130.716 67.2286 130.81 67.0148 130.818 66.7744C130.826 66.533 130.741 66.3154 130.615 66.1338C130.546 66.0342 130.559 65.9924 130.58 65.9463C130.69 65.6999 130.781 65.4498 130.853 65.2002C130.98 64.7635 130.811 64.3774 130.537 64.0791C130.71 63.9354 130.868 63.7567 130.951 63.5322C131.041 63.2862 131.022 63.0311 130.912 62.8018C130.775 62.5173 130.576 62.2484 130.33 61.9932C130.322 61.9846 130.316 61.9763 130.31 61.9697C130.453 61.7957 130.566 61.5806 130.568 61.3252C130.571 61.0661 130.461 60.8424 130.318 60.665C130.182 60.4958 130.138 60.3626 130.131 60.2627C130.128 60.2327 130.132 60.1408 130.299 59.9736C130.54 59.7315 130.753 59.4851 130.935 59.2353C131.086 59.0296 131.169 58.7668 131.099 58.4814C131.035 58.2202 130.858 58.0193 130.677 57.8721C130.661 57.8583 130.649 57.8436 130.638 57.833C130.823 57.588 130.975 57.3375 131.072 57.0713C131.228 56.6408 131.099 56.232 130.83 55.9033C130.672 55.7108 130.571 55.5292 130.51 55.3643C130.453 55.2104 130.436 55.0672 130.455 54.9268C130.486 54.6951 130.513 54.4631 130.537 54.2314C130.569 53.9179 130.52 53.61 130.4 53.3135C130.356 53.2042 130.358 53.1083 130.4 53.001C130.453 52.8652 130.565 52.6977 130.771 52.5049C130.941 52.3467 131.095 52.1312 131.127 51.8564C131.16 51.5688 131.045 51.3231 130.888 51.1377C130.717 50.9344 130.58 50.7363 130.474 50.5439C130.483 50.5284 130.506 50.4997 130.549 50.458C130.709 50.302 130.851 50.1012 130.9 49.8564C130.951 49.5987 130.887 49.3562 130.76 49.1533C130.672 49.0142 130.662 48.9134 130.677 48.8291C130.747 48.446 130.628 48.0914 130.408 47.7861C130.417 47.7755 130.431 47.762 130.447 47.7471C130.734 47.4824 130.955 47.1778 131.049 46.8291C131.18 46.3386 130.925 45.9309 130.599 45.6455C130.745 45.4861 130.874 45.2867 130.892 45.0361C130.913 44.7573 130.799 44.5186 130.646 44.3369C130.497 44.1594 130.429 44.0134 130.408 43.8955C130.399 43.8441 130.405 43.7562 130.521 43.6103C130.781 43.2823 130.897 42.8807 130.752 42.458C130.717 42.3585 130.722 42.2644 130.775 42.1494C130.877 41.9289 130.898 41.6847 130.822 41.4463C130.75 41.2224 130.603 41.0406 130.439 40.8916C130.349 40.8096 130.309 40.7461 130.291 40.708C130.276 40.6758 130.274 40.6592 130.275 40.6533C130.316 40.3829 130.323 40.1118 130.291 39.8408C130.264 39.6198 130.24 39.3977 130.22 39.1768C130.219 39.1652 130.213 39.0785 130.396 38.9072C130.571 38.7448 130.739 38.5099 130.744 38.208C130.749 37.9042 130.588 37.6672 130.416 37.501C130.245 37.3369 130.254 37.2556 130.256 37.2432C130.268 37.148 130.322 37.013 130.482 36.8369C130.634 36.6702 130.755 36.4561 130.775 36.2002C130.796 35.9381 130.703 35.706 130.564 35.5205C130.457 35.3782 130.452 35.2895 130.463 35.2314C130.521 34.9183 130.498 34.6058 130.396 34.3018C130.334 34.116 130.3 33.9337 130.291 33.7549C130.28 33.5453 130.28 33.3356 130.291 33.126C130.296 33.0272 130.339 32.8951 130.47 32.7275C130.738 32.3866 130.841 31.9696 130.658 31.5439C130.616 31.4465 130.617 31.3626 130.662 31.2627C130.759 31.0445 130.863 30.8252 130.974 30.6064C131.102 30.3548 131.107 30.0767 130.982 29.8213C130.871 29.5949 130.676 29.4215 130.474 29.2861C130.409 29.2423 130.362 29.2039 130.33 29.1728C130.314 29.1579 130.306 29.1432 130.299 29.1338C130.386 28.8774 130.437 28.6174 130.443 28.3525C130.445 28.2565 130.485 28.1264 130.611 27.9619C130.818 27.691 130.965 27.3989 131.033 27.0869C131.082 26.8609 131.132 26.6332 131.181 26.4072C131.242 26.1282 131.256 25.8452 131.224 25.5635C131.195 25.3054 131.142 25.0486 131.064 24.7939C130.956 24.4395 130.707 24.1362 130.396 23.876C130.297 23.7923 130.254 23.7336 130.24 23.7041C130.238 23.6998 130.237 23.6949 130.236 23.6924L130.314 23.5479C130.365 23.4817 130.445 23.3965 130.576 23.2979C130.769 23.1521 130.995 22.9154 131.006 22.5752C131.016 22.2277 130.798 21.9805 130.607 21.8291L130.603 21.8252C130.75 21.6513 130.867 21.4212 130.834 21.1416C130.798 20.8476 130.613 20.6291 130.431 20.4775C130.425 20.4718 130.421 20.463 130.416 20.458C130.549 20.2941 130.66 20.0951 130.666 19.8525C130.672 19.5824 130.555 19.3536 130.404 19.1768C130.394 19.165 130.39 19.1531 130.385 19.1455C130.388 19.141 130.392 19.1359 130.396 19.1299C130.647 18.8104 130.771 18.423 130.658 18.0088C130.643 17.9561 130.639 17.8807 130.732 17.751C130.86 17.5739 130.948 17.3639 130.951 17.126C130.954 16.8872 130.869 16.6729 130.744 16.4932C130.612 16.3044 130.482 16.1155 130.353 15.9268C130.383 15.9048 130.422 15.8809 130.47 15.8525C130.683 15.7287 130.97 15.5151 131.033 15.1689C131.104 14.7793 130.858 14.5035 130.662 14.3525C130.796 14.215 130.918 14.0539 130.974 13.8564C131.045 13.6087 131.01 13.3616 130.896 13.1455L130.463 12.4307C130.472 12.4178 130.488 12.4012 130.51 12.3799C130.682 12.2121 130.839 11.9702 130.83 11.665C130.82 11.3808 130.666 11.16 130.502 11.001C130.658 10.8525 130.8 10.6662 130.853 10.4307C130.913 10.1638 130.848 9.91347 130.713 9.70801L130.256 9.04394C130.18 8.9376 130.171 8.86031 130.185 8.78613C130.254 8.44488 130.203 8.10799 130.029 7.80566C129.931 7.63593 129.852 7.46491 129.791 7.29394C129.766 7.22575 129.75 7.10141 129.814 6.8877C129.912 6.56388 129.963 6.24075 129.959 5.91895C129.953 5.56045 129.854 5.22448 129.642 4.93848C129.486 4.72695 129.315 4.52787 129.131 4.34082C128.977 4.18493 128.831 4.02166 128.697 3.84863C128.387 3.44786 127.903 3.39057 127.467 3.46191L127.338 3.47363C127.233 3.19375 127.098 2.93446 126.927 2.7002C126.795 2.518 126.611 2.38201 126.385 2.31738C126.165 2.25514 125.942 2.27175 125.736 2.3252L125.638 2.33691C125.636 2.33515 125.628 2.32584 125.615 2.30566C125.412 1.99512 125.132 1.76085 124.771 1.66113C124.485 1.58189 124.188 1.56127 123.888 1.59473C123.695 1.61627 123.512 1.6133 123.342 1.58301C123.154 1.54961 122.96 1.4942 122.763 1.41895C122.48 1.31054 122.187 1.2578 121.888 1.27051C121.529 1.28597 121.202 1.43898 120.916 1.66895C120.852 1.72024 120.815 1.73002 120.806 1.73145C120.802 1.73206 120.799 1.73206 120.795 1.73145C120.79 1.73069 120.78 1.72753 120.763 1.71973C120.564 1.6252 120.36 1.50783 120.154 1.36426C119.984 1.24608 119.789 1.16028 119.572 1.1416C119.352 1.12288 119.142 1.17605 118.955 1.27441C118.914 1.29565 118.893 1.29457 118.885 1.29395C118.874 1.29317 118.842 1.28823 118.787 1.25098C118.459 1.03122 118.081 0.945115 117.689 1.05957C117.321 1.16773 117.013 1.43756 116.756 1.7666C116.666 1.88124 116.591 1.94192 116.541 1.97363C116.517 1.98865 116.499 1.99809 116.49 2.00098C116.484 2.00255 116.48 2.00085 116.478 2.00098C116.408 1.99987 116.29 1.97004 116.123 1.82129C115.845 1.57297 115.523 1.39459 115.166 1.35254C115.031 1.33645 114.878 1.28342 114.705 1.16895C114.396 0.96464 114.047 0.858926 113.677 0.911133C113.281 0.967478 112.972 1.23849 112.724 1.55566C112.579 1.38645 112.371 1.21843 112.088 1.19629C111.745 1.16956 111.49 1.36888 111.33 1.55566C111.262 1.63512 111.215 1.66349 111.197 1.67285C110.826 1.53042 110.468 1.59927 110.154 1.79785C110.136 1.77557 110.115 1.74809 110.092 1.71191C109.963 1.51002 109.718 1.20984 109.326 1.21191C108.971 1.2138 108.742 1.46418 108.607 1.66113C108.469 1.5078 108.291 1.36061 108.049 1.32129C107.717 1.26773 107.449 1.42656 107.271 1.60645C107.091 1.78851 106.961 1.84511 106.881 1.85645C106.694 1.88229 106.508 1.88373 106.322 1.86426C106.149 1.84608 105.971 1.79838 105.787 1.71973C105.628 1.65182 105.45 1.53392 105.256 1.34863C105.08 1.18091 104.831 1.04036 104.529 1.06348C104.238 1.08626 104.015 1.25199 103.857 1.42676C103.778 1.51464 103.727 1.54441 103.709 1.55176L103.705 1.55176C103.315 1.423 102.935 1.50263 102.603 1.71973C102.59 1.71085 102.571 1.69529 102.545 1.66895C102.277 1.39946 101.972 1.19327 101.631 1.10645L101.443 1.0791C101.012 1.05522 100.667 1.33684 100.431 1.6416C100.342 1.75743 100.272 1.81928 100.224 1.84863C100.203 1.86199 100.188 1.86612 100.181 1.86816L100.174 1.87207C99.9915 1.86302 99.8066 1.82896 99.6189 1.77051C99.4834 1.72822 99.3184 1.63455 99.1306 1.45801C98.8519 1.19586 98.5237 1.006 98.1501 0.973633C97.845 0.947446 97.5431 0.993165 97.2517 1.10254C96.9504 1.21587 96.6691 1.40298 96.408 1.64551C96.247 1.79515 96.1545 1.80532 96.115 1.80176C96.0084 1.79189 95.8713 1.74126 95.7009 1.60645C95.5152 1.45904 95.2757 1.35367 95.0017 1.37988C94.7817 1.40137 94.6043 1.51271 94.4548 1.6377C94.4509 1.63222 94.4434 1.6282 94.4392 1.62207C94.302 1.42278 94.0899 1.19179 93.7791 1.13379C93.4296 1.06923 93.1554 1.25158 92.9822 1.43848C92.7984 1.63693 92.6661 1.69257 92.5916 1.7041C92.3668 1.73889 92.1405 1.77336 91.9158 1.80566C91.8068 1.82097 91.6849 1.80384 91.5408 1.72754C91.1904 1.54237 90.8097 1.51288 90.4392 1.66504C90.2801 1.73057 90.1316 1.75453 89.99 1.74316C89.8585 1.73247 89.7073 1.68417 89.5369 1.5752C89.2747 1.40762 89.0045 1.27882 88.7244 1.2002C88.4264 1.11658 88.121 1.10235 87.8181 1.15723C87.4768 1.21938 87.1698 1.39738 86.8962 1.6416C86.7517 1.77063 86.6885 1.75177 86.6697 1.74707C86.4206 1.68483 86.1705 1.63982 85.9197 1.61426C85.6346 1.58522 85.3491 1.60751 85.0681 1.67676C84.8434 1.73218 84.6225 1.8099 84.4001 1.89551C84.392 1.88795 84.3801 1.88053 84.3689 1.86816C84.3367 1.83255 84.2966 1.7803 84.2517 1.70801C84.0111 1.32099 83.6686 0.93543 83.1853 0.899414C82.7724 0.868834 82.4158 1.05966 82.1267 1.33301C81.9407 1.5091 81.7555 1.6487 81.5798 1.7627C81.5612 1.74411 81.5365 1.72021 81.5095 1.68457C81.3675 1.49655 81.1744 1.31424 80.9236 1.23145C80.7132 1.16239 80.5086 1.17999 80.3259 1.25488L80.1541 1.34473L79.9197 1.46582C79.8492 1.49085 79.7842 1.50183 79.7244 1.50488C79.4821 1.51697 79.2396 1.54369 78.9978 1.5791C78.8225 1.6048 78.6462 1.60046 78.4705 1.57129C78.3751 1.55541 78.2363 1.4953 78.0564 1.32129C77.7481 1.02297 77.339 0.838228 76.8806 0.981445C76.5361 1.08952 76.2359 1.32424 75.9744 1.62207C75.7917 1.83018 75.6734 1.86761 75.6267 1.87207C75.3874 1.89283 75.1469 1.92201 74.908 1.96191H74.9001C74.8965 1.96116 74.8872 1.95745 74.8728 1.9502C74.8369 1.93192 74.7735 1.88876 74.6892 1.79004C74.436 1.49287 74.0747 1.25038 73.6462 1.31738L73.4587 1.36426L73.2869 1.39551C73.2308 1.39536 73.1735 1.38508 73.115 1.36426C72.7975 1.25154 72.468 1.23356 72.1423 1.31738C72.0153 1.34981 71.8907 1.34566 71.7556 1.29785C71.379 1.16449 71.0024 1.21622 70.6619 1.41113C70.5199 1.4925 70.4048 1.50501 70.3064 1.48926C70.1913 1.47053 70.0451 1.41025 69.8689 1.2627C69.5363 0.984118 69.1182 0.8562 68.6814 1.03223C68.48 1.11346 68.281 1.17669 68.0837 1.21973C67.7788 1.28614 67.5052 1.44933 67.2517 1.66113C67.2453 1.65344 67.2355 1.64722 67.2283 1.6377C67.0841 1.44793 66.8716 1.25091 66.5798 1.19629C66.2585 1.1363 65.9917 1.27579 65.8064 1.4502C65.7726 1.48206 65.7463 1.50224 65.7283 1.5127C65.72 1.51748 65.7129 1.5188 65.7087 1.52051L65.7048 1.52441C65.7022 1.52344 65.6984 1.51927 65.6931 1.5166C65.421 1.37938 65.1388 1.29082 64.8494 1.25488C64.5083 1.21268 64.1784 1.28364 63.8728 1.44629C63.8287 1.46967 63.8038 1.4702 63.7908 1.46973C63.7769 1.46913 63.7454 1.46661 63.6931 1.43457C63.4386 1.27721 63.177 1.15081 62.9119 1.05957C62.4398 0.897262 62.0195 1.09654 61.7127 1.40723C61.6804 1.43985 61.6566 1.45675 61.6423 1.46582C61.3945 1.31446 61.1433 1.18563 60.8884 1.08691C60.6156 0.981404 60.3362 0.919924 60.0525 0.907227C59.7289 0.892982 59.4131 0.97119 59.1189 1.12207C58.94 1.21365 58.771 1.26407 58.6111 1.28223C58.3495 1.312 58.0908 1.37321 57.8337 1.45801C57.6532 1.51762 57.4751 1.54587 57.3025 1.54785C57.1686 1.54933 57.0235 1.51506 56.8611 1.43066C56.5605 1.27415 56.2372 1.2018 55.9041 1.23145C55.5156 1.26613 55.1826 1.4756 54.908 1.75879C54.8328 1.83634 54.7875 1.86245 54.7712 1.86816C54.767 1.8696 54.7634 1.86819 54.7634 1.86816L54.7595 1.86426C54.5852 1.80143 54.399 1.70268 54.2048 1.55957C54.0144 1.41949 53.7766 1.33212 53.5095 1.36426C53.2521 1.39551 53.0423 1.53036 52.8806 1.68848C52.8358 1.73243 52.8047 1.75195 52.7908 1.75879L52.7869 1.75488C52.5643 1.6341 52.3417 1.5086 52.1189 1.37988L51.947 1.30176C51.7701 1.23968 51.576 1.23002 51.3806 1.29004C51.1758 1.35323 51.0166 1.48883 50.8806 1.63379C50.7448 1.45594 50.5749 1.28308 50.3494 1.19629C50.0781 1.09237 49.8033 1.1351 49.572 1.27441C49.4882 1.32504 49.4453 1.31948 49.3806 1.28613C48.9998 1.0885 48.5907 1.10303 48.2205 1.31348C48.2161 1.31594 48.2116 1.31606 48.2087 1.31738C48.1972 1.31251 48.169 1.301 48.1267 1.2627C47.9344 1.08745 47.6566 0.952761 47.3337 1.02832C47.048 1.09548 46.8454 1.30316 46.7048 1.49707C46.6939 1.51221 46.6828 1.52485 46.6736 1.53613C46.427 1.33927 46.1678 1.18583 45.8845 1.10645C45.6508 1.04122 45.4154 0.980154 45.1814 0.926758Z" fill="#111111"/>
</svg>
