<svg width="206" height="206" viewBox="0 0 206 206" fill="none" xmlns="http://www.w3.org/2000/svg">
<path fill-rule="evenodd" clip-rule="evenodd" d="M159.127 151.181L153.997 150.879L149.37 141.826L139.412 127.845L132.371 127.644L125.129 125.632L117.082 121.407L111.852 117.183L110.946 120.301L111.55 125.934L122.011 141.021L127.141 151.181L122.212 150.879L117.585 142.43L111.65 134.282L107.627 135.288H103.201L97.7695 134.282L92.5391 132.472L83.8887 127.442L75.6406 119.597L67.1914 125.028L57.2334 133.377L50.9971 141.625L46.873 151.181L42.1455 151.08L44.9619 143.033L50.7959 133.578L57.1328 127.04L64.8779 121.307L56.3281 121.005L48.2812 118.993L41.0391 115.372L34.501 109.84L31.4834 105.213L31.0811 102.195L41.2402 98.4736L44.0566 96.6631L47.1748 93.5449L42.2461 95.0537H38.2227L34.8027 94.0479L32.1875 92.4385L29.4717 89.7227L27.46 86.3027L26.0518 79.2617L27.3594 78.5576L32.9922 80.5693H36.8145L40.4355 79.5635L44.6602 76.9482L47.7783 73.6289L50.1924 69.8066L52.4053 64.7773L55.2217 55.1211L52.2041 52.5059L49.3877 48.0801L47.9795 43.4531L47.7783 38.625L48.583 34.6016L50.3936 30.5781L54.1152 26.0518L58.3398 23.2354L63.9727 21.626H68.3984L72.623 22.6318L76.2441 24.4424L79.4629 27.0576L85.2969 25.0459L90.5273 24.04L102.799 24.2412L108.834 25.8506L114.467 28.4658L120.1 32.4893L123.821 36.4121L126.839 40.8379L129.655 46.873L131.868 54.7188L132.673 61.1562L136.395 62.665L138.708 65.582L139.513 68.3984V72.4219L138.507 76.2441L137.099 78.6582L132.874 81.877L131.265 90.7285L128.448 97.166L122.715 103.905L116.981 107.627L114.567 113.26L119.898 117.585L125.732 120.804L134.584 123.218L136.294 123.117L134.886 119.094L134.685 113.26L136.294 105.414L138.104 100.385L140.82 98.6748L151.281 98.4736L155.506 97.2666L159.831 93.9473L161.642 90.5273L162.647 83.084L157.92 82.7822L154.098 81.7764L149.873 79.5635L148.968 78.6582V77.4512L150.678 76.7471L155.707 79.3623L162.547 79.9658L162.446 71.0137L168.079 66.1855L162.346 63.2686L157.819 59.5469L155.808 55.9258L152.589 46.0684L150.979 43.6543L147.057 40.335L145.648 40.5361L139.412 44.1572L133.779 49.3877L129.655 39.2285L124.022 31.584L131.969 30.0752L140.217 31.0811L145.85 33.4951L152.79 39.4297L156.612 45.666L159.026 53.7129L160.837 57.1328L164.76 60.251L171.197 63.6709L172.304 65.1797V66.9902L171.298 68.8008L166.269 73.0254V86.9062L165.464 91.1309L163.452 95.7578L159.73 99.6807L154.299 102.296L150.678 102.899H141.424L138.909 111.852L138.708 117.686L140.72 122.514L153.997 140.016L157.216 146.051L159.127 151.181ZM105.313 106.621L111.248 105.716L116.076 103.704L120.1 100.888L125.028 94.9531L126.839 91.1309L128.448 85.2969L129.052 69.8066L127.04 55.7246L123.017 45.666L118.893 40.7373L114.266 37.9209L113.763 40.4355L112.153 43.4531L108.834 46.5713L106.219 47.7783L108.13 43.252L108.331 39.4297L106.923 35.6074L104.207 32.4893L102.899 39.2285L99.4795 45.0625L92.9414 50.3936L88.7168 52.4053L81.877 54.2158L79.7646 61.3574L76.3447 67.1914L72.623 69.7061H71.416L68.3984 68.0967L65.7832 68.499L63.0674 71.416L62.665 75.8418L65.0791 81.2734L68.5996 84.3916L71.8184 85.1963L74.9365 83.8887L79.3623 93.1426L82.3799 96.9648L87.5098 101.491L96.3613 105.716L100.184 106.521L105.313 106.621ZM40.6367 186.587H36.4121L35.9092 186.084L31.9863 168.683L28.0635 186.285H23.0342L17.6025 164.76L17.9043 163.251L22.0283 163.553L25.75 181.356L30.1758 163.251H33.998L34.7021 164.156L38.4238 181.356L42.1455 163.754L42.6484 163.251H46.0684L46.5713 163.754L40.6367 186.587ZM145.648 26.8564H141.021L136.395 25.6494L126.034 20.1172L126.939 18.6084L132.773 19.6143L135.489 19.3125L129.253 12.4727L127.644 9.65625L127.945 8.34863L145.045 13.9814L146.151 9.45508L149.068 7.34277H153.293L155.908 9.95801L159.63 9.25391L156.612 12.2715V16.8984L154.399 21.7266L150.074 25.4482L145.648 26.8564ZM183.469 186.587L179.244 186.386L173.41 178.138L173.31 186.285H169.286V162.547L169.789 162.044H172.807L173.511 162.949L173.41 175.724L178.842 169.286L183.167 169.387L177.132 176.629L183.972 185.682L183.469 186.587ZM106.018 186.788H103L99.7812 185.581L97.6689 183.066L97.0654 180.049L98.2725 176.227L101.491 173.611L99.4795 169.99L100.083 165.564L102.195 163.452L104.609 162.647L108.834 163.05L111.55 165.967L111.751 168.582L110.946 170.594L107.124 173.812L110.846 178.138L112.656 173.108L116.177 173.41L115.372 177.232L113.562 180.854L117.786 185.883L117.283 186.587H113.26L110.846 184.173L108.834 185.782L106.018 186.788ZM89.3203 186.587H85.2969L79.2617 178.138L79.1611 186.084L78.6582 186.587H75.4395L74.9365 186.084V162.346L75.4395 161.843H78.6582L79.1611 162.346L79.2617 175.724L84.4922 169.286L89.0186 169.387L82.9834 176.629L89.6221 185.48L89.3203 186.587ZM108.331 130.762L109.136 130.561L107.325 126.135L107.124 119.295L109.136 110.443L101.592 110.745L96.5625 109.94L91.332 108.13L84.291 103.905L82.7822 110.443L78.7588 116.881L85.2969 123.017L92.7402 127.644L99.9824 130.259L108.331 130.762ZM56.0264 52.707L59.4463 45.2637L64.0732 38.625L68.5996 33.8975L77.0488 28.2646L76.8477 27.8623L71.2148 24.6436L63.7715 24.04L58.9434 25.6494L54.2158 29.3711L50.7959 35.4062L50.1924 42.4473L52.0029 48.0801L56.0264 52.707ZM108.834 91.4326L104.609 90.8291L99.5801 87.8115L96.0596 82.6816L95.6572 79.8652L97.5684 79.5635L99.8818 84.0898L103.201 87.208L106.822 88.6162H110.041L114.467 86.6045L116.981 83.6875L118.39 80.4688L119.898 79.7646L120.804 81.2734L117.585 87.3086L113.26 90.4268L108.834 91.4326ZM148.264 186.788H145.246L143.436 185.983L141.726 183.268V180.451L143.838 177.333L146.051 176.327L150.979 175.824L150.778 173.611L149.471 172.505H146.855L144.24 173.913L142.731 172.002V170.996L145.246 169.286L149.672 168.683L153.494 170.292L155.003 173.008L155.204 185.883L154.5 186.587H151.885L151.281 184.776L148.264 186.788ZM54.1152 186.788H50.8965L49.0859 185.983L47.7783 184.273L47.376 181.055L47.9795 179.043L49.8906 177.132L52.9082 176.126L56.6299 175.824L56.4287 173.611L54.7188 172.304L52.5059 172.505L49.8906 173.913L48.3818 171.801V170.996L50.8965 169.286L55.1211 168.683L58.3398 169.688L60.4521 172.203L60.8545 185.883L60.3516 186.587H57.7363L56.9316 184.978L54.1152 186.788ZM134.785 186.386L130.862 186.084V167.174L124.727 167.073L124.224 166.369L124.727 163.251H141.424L141.927 163.754V166.57L141.424 167.073L135.288 167.174V185.883L134.785 186.386ZM144.743 24.543L149.27 23.2354L152.991 19.7148L154.198 17.0996L154.601 13.2773L153.796 10.8633L152.689 9.75684L150.678 9.35449L149.068 9.95801L147.761 11.4668L147.157 15.8926L145.548 19.1113L142.43 21.8271L137.903 23.5371L141.826 24.6436L144.743 24.543ZM71.2148 186.788L66.7891 186.185L65.0791 183.469V162.346L65.582 161.843H68.5996L69.1025 162.346V182.262L71.7178 183.066V186.486L71.2148 186.788ZM165.564 186.788L161.139 186.185L159.429 183.469V162.346L159.932 161.843H162.949L163.452 162.346V182.262L166.067 183.268V186.285L165.564 186.788ZM108.834 81.5752L107.325 80.6699L107.526 79.2617L111.449 77.3506L112.757 75.4395L107.325 69.002L106.923 68.1973L107.828 66.8896H108.834L112.153 70.0078L115.372 74.8359L114.97 77.8535L112.656 79.9658L108.834 81.5752ZM97.9707 72.3213H95.959L93.1426 71.1143L90.6279 67.5938V65.9844L92.1367 65.2803L94.9531 69.1025L97.166 69.7061L99.5801 68.7002L100.485 67.3926L100.888 64.9785L102.396 64.4756L103.302 65.582L102.497 69.2031L100.787 71.1143L97.9707 72.3213ZM119.496 70.9131L115.875 70.3096L113.763 68.3984L112.354 65.582L113.059 63.8721L114.567 64.375L116.68 67.6943L119.496 68.0967L121.206 66.3867L121.407 63.3691L122.312 62.665L123.62 63.3691L123.821 66.3867L122.815 68.8008L119.496 70.9131ZM89.7227 59.0439L88.0127 58.541V56.9316L90.125 54.8193L93.7461 53.21H98.373L102.095 55.3223V56.3281L101.189 57.2334L97.166 55.624L94.1484 55.8252L91.7344 57.0322L89.7227 59.0439ZM112.053 56.2275L110.343 55.7246L110.544 53.7129L112.053 52.4053L115.875 50.9971L119.697 51.6006L123.218 54.3164L123.017 55.3223L121.508 56.0264L118.691 54.0146L115.473 53.8135L112.053 56.2275ZM146.051 62.8662L142.027 61.6592L140.519 59.9492L140.72 58.7422L142.229 58.4404L144.039 59.8486L146.654 60.0498L148.565 58.541L148.968 56.5293L149.873 55.8252L150.678 56.0264L151.181 56.5293V58.7422L150.376 60.5527L149.068 61.8604L146.051 62.8662ZM132.673 78.457L134.886 76.6465L136.093 74.4336L136.696 68.8008L136.093 66.7891L134.584 65.0791L131.969 64.2744L132.673 78.457ZM40.6367 61.6592L39.3291 60.9551V59.9492L45.8672 54.417L47.4766 54.0146L47.9795 55.7246L40.6367 61.6592ZM53.9141 20.8213L52.2041 20.1172L47.5771 13.2773L48.2812 11.5674L49.79 12.2715L54.417 19.1113L53.9141 20.8213ZM80.0664 20.8213L78.6582 20.6201L78.3564 19.3125L82.9834 12.2715L83.6875 11.5674L84.8945 11.7686L85.1963 13.2773L80.0664 20.8213ZM44.6602 30.8799L36.2109 27.2588L35.5068 26.5547L35.708 25.3477L37.6191 25.2471L44.8613 28.667L45.3643 30.1758L44.6602 30.8799ZM106.521 183.066L108.935 181.658L103.402 175.724L101.894 177.836L101.692 180.854L103.402 182.966L106.521 183.066ZM35.2051 44.7607H32.9922L32.4893 44.2578V43.0508L33.1934 42.5479L40.8379 41.542L42.9502 42.0449L42.4473 43.7549L35.2051 44.7607ZM66.7891 17.2002L65.2803 16.4961V7.24219L65.9844 6.53809L67.4932 7.24219V16.4961L66.7891 17.2002ZM54.417 183.67L56.8311 181.859L56.5293 178.339L53.1094 178.942L51.3994 180.652L51.6006 182.865L52.707 183.771L54.417 183.67ZM148.767 183.67L151.181 181.658L151.08 178.54L147.258 178.942L145.749 180.451L145.95 183.066L146.855 183.771L148.767 183.67ZM105.112 171.398L107.728 168.984V167.174L106.621 166.067H104.811L103.503 167.576L103.905 170.191L105.112 171.398ZM152.086 14.3838L150.376 13.6797L151.281 12.1709L152.589 12.875L152.086 14.3838Z" fill="#111111"/>
</svg>
